# Blender 4.5.3 LTS
# www.blender.org
mtllib venus_die_trap.mtl
o Cube
v -0.840217 1.632967 0.146385
v -0.840217 3.358741 0.146385
v -0.840217 1.632967 -0.146385
v -0.840217 3.358741 -0.146385
v -0.547448 1.632967 0.146385
v -0.547448 3.358741 0.146385
v -0.547448 1.632967 -0.146385
v -0.547448 3.358741 -0.146385
v -0.376850 -0.102050 0.151833
v -0.840137 1.626963 0.151833
v -0.376850 -0.102050 -0.151833
v -0.840137 1.626963 -0.151833
v -0.083531 -0.023455 0.151833
v -0.546818 1.705557 0.151833
v -0.083531 -0.023455 -0.151833
v -0.546818 1.705557 -0.151833
v -0.841132 3.353151 0.143502
v -0.158782 4.901227 0.143502
v -0.841132 3.353151 -0.143502
v -0.158782 4.901227 -0.143502
v -0.578508 3.237394 0.143502
v 0.103842 4.785470 0.143502
v -0.578508 3.237394 -0.143502
v 0.103842 4.785470 -0.143502
v 1.699900 5.254769 -0.272676
v 0.794355 5.718056 1.200238
v 1.515038 3.937475 0.028011
v 0.609494 4.400762 1.500924
v 0.589393 4.595562 -0.748068
v -0.316151 5.058849 0.724845
v 0.589550 4.596682 -0.748324
v -0.315994 5.059969 0.724589
v 1.685577 5.248967 -0.264879
v 0.792336 5.705960 1.188023
v 1.503227 3.949570 0.031722
v 0.609986 4.406564 1.484624
v 0.590158 4.598716 -0.733812
v -0.303084 5.055709 0.719089
v 0.590313 4.599822 -0.734065
v -0.302928 5.056815 0.718837
v 0.806740 4.128945 1.180094
v 1.273038 3.890381 0.421636
v 0.948350 4.009138 0.949758
v 1.119027 3.921817 0.672143
v 0.374644 4.706774 -0.398768
v -0.101051 4.950145 0.374973
v 0.216079 4.787898 -0.140854
v 0.057514 4.869021 0.117059
v 1.027650 5.752395 0.805272
v 1.493949 5.513831 0.046814
v 1.181662 5.720959 0.554765
v 1.352339 5.633638 0.277150
v 0.381366 4.705397 -0.394202
v -0.094329 4.948768 0.379539
v 0.222801 4.786521 -0.136288
v 0.064236 4.867644 0.121625
v 1.502654 5.526586 0.048154
v 1.036355 5.765150 0.806612
v 1.361044 5.646393 0.278490
v 1.190367 5.733713 0.556105
v -0.101246 4.948757 0.375290
v 0.374450 4.705386 -0.398452
v 0.057320 4.867633 0.117376
v 0.215885 4.786510 -0.140538
v 1.267913 3.903136 0.414473
v 0.801614 4.141700 1.172931
v 1.113901 3.934572 0.664980
v 0.943224 4.021893 0.942595
v -0.094137 4.950134 0.379227
v 0.381558 4.706763 -0.394514
v 0.064428 4.869010 0.121313
v 0.222993 4.787887 -0.136601
v 1.443081 5.167197 -0.388246
v 0.909802 4.864453 -0.620880
v 1.169033 5.038784 -0.516339
v 0.016560 5.321446 0.832022
v 0.549839 5.624189 1.064656
v 0.275791 5.495777 0.936562
v 0.775303 5.649124 0.685272
v 0.258576 5.300416 0.482503
v 0.506735 5.499018 0.570139
v 0.928848 5.609738 0.430860
v 0.423288 5.247325 0.227404
v 0.665270 5.452776 0.314661
v 1.096645 5.523891 0.157929
v 0.585565 5.164302 -0.036548
v 0.830135 5.368430 0.046500
v 0.731445 5.058490 -0.286641
v 1.243816 5.409427 -0.076788
v 0.977553 5.258142 -0.195669
v 0.916879 4.867818 -0.632365
v 1.450142 5.170549 -0.399737
v 1.176099 5.042141 -0.527828
v 0.544597 5.633837 1.073177
v 0.011335 5.331105 0.840549
v 0.270555 5.505428 0.945085
v 0.260084 5.309460 0.480552
v 0.776540 5.658603 0.683092
v 0.508078 5.508282 0.568053
v 0.424695 5.256480 0.225430
v 0.930139 5.619120 0.428650
v 0.666599 5.462044 0.312559
v 0.587005 5.173440 -0.038576
v 1.097893 5.533295 0.155791
v 0.831461 5.377698 0.044403
v 1.245087 5.418889 -0.079024
v 0.732925 5.067549 -0.288548
v 0.978897 5.267405 -0.197758
v 0.835373 4.334085 -0.499818
v 1.283681 4.031341 -0.128974
v 1.045674 4.159754 -0.315691
v 0.390439 4.488334 1.323927
v -0.057868 4.791078 0.953084
v 0.152432 4.616746 1.137211
v 0.159869 4.597041 0.643056
v 0.578411 4.246103 1.005527
v 0.352139 4.397389 0.821598
v 0.317182 4.491228 0.399991
v 0.721420 4.131640 0.768251
v 0.501686 4.287101 0.580739
v 0.479459 4.408205 0.136040
v 0.889218 4.045793 0.495321
v 0.666551 4.202754 0.312577
v 1.046924 4.006407 0.243467
v 0.632738 4.355115 -0.126088
v 0.822957 4.156513 0.055790
v 1.288918 4.021694 -0.137498
v 0.840623 4.324426 -0.508330
v 1.050916 4.150103 -0.324211
v -0.064922 4.787713 0.964584
v 0.383373 4.484982 1.335415
v 0.145371 4.613390 1.148703
v 0.576990 4.236642 1.007670
v 0.158836 4.587982 0.645237
v 0.350881 4.388126 0.823740
v 0.720075 4.122236 0.770330
v 0.316022 4.482091 0.402192
v 0.500414 4.277833 0.582868
v 0.887829 4.036411 0.497470
v 0.478332 4.399051 0.138186
v 0.665276 4.193487 0.314712
v 1.045537 3.996927 0.245554
v 0.631677 4.346070 -0.123862
v 0.821701 4.147249 0.057929
v -0.216674 3.272380 -1.146705
v 0.497134 3.155918 -0.224513
v -0.297581 2.738225 -0.958445
v 0.416227 2.621764 -0.036254
v -0.839685 3.263736 -0.568936
v -0.125877 3.147275 0.353255
v -0.839616 3.264191 -0.569096
v -0.125808 3.147730 0.353095
v -0.216332 3.269717 -1.135877
v 0.487778 3.154838 -0.226214
v -0.296140 2.742820 -0.950174
v 0.407971 2.627941 -0.040512
v -0.830878 3.261192 -0.565958
v -0.126768 3.146312 0.343705
v -0.830811 3.261639 -0.566115
v -0.126700 3.146760 0.343547
v 0.233313 2.585351 -0.237125
v -0.134254 2.645322 -0.711996
v 0.114085 2.586444 -0.381339
v -0.020454 2.608395 -0.555153
v -0.670191 3.236603 -0.350240
v -0.295217 3.175425 0.134200
v -0.545199 3.216211 -0.188760
v -0.420208 3.195818 -0.027280
v 0.329066 3.245407 -0.465855
v -0.038500 3.305377 -0.940725
v 0.215266 3.282334 -0.622697
v 0.080728 3.304284 -0.796512
v -0.666318 3.234288 -0.353328
v -0.291345 3.173110 0.131112
v -0.541327 3.213896 -0.191848
v -0.416336 3.193502 -0.030368
v -0.033760 3.308792 -0.945833
v 0.333807 3.248821 -0.470962
v 0.085468 3.307699 -0.801620
v 0.220007 3.285749 -0.627805
v -0.295303 3.174862 0.134399
v -0.670276 3.236041 -0.350041
v -0.420294 3.195255 -0.027081
v -0.545285 3.215648 -0.188561
v -0.137427 2.652251 -0.710534
v 0.230139 2.592281 -0.235663
v -0.023627 2.615324 -0.553691
v 0.110911 2.593374 -0.379877
v -0.291261 3.173663 0.130917
v -0.666234 3.234842 -0.353523
v -0.416252 3.194056 -0.030563
v -0.541243 3.214449 -0.192043
v -0.353550 3.295259 -1.014453
v -0.652988 3.297203 -0.738055
v -0.507942 3.308243 -0.874485
v 0.051122 3.182325 0.171607
v 0.350560 3.180380 -0.104791
v 0.196168 3.193363 0.035177
v 0.188134 3.263294 -0.337468
v -0.097980 3.239430 -0.064159
v 0.038866 3.264613 -0.197778
v 0.070728 3.298382 -0.494966
v -0.215504 3.268639 -0.228792
v -0.079143 3.297002 -0.358649
v -0.061541 3.319962 -0.665848
v -0.343422 3.289509 -0.394052
v -0.209100 3.318205 -0.526545
v -0.470726 3.300245 -0.545720
v -0.181178 3.323549 -0.814594
v -0.332262 3.325165 -0.677251
v -0.657431 3.300632 -0.745256
v -0.358002 3.298687 -1.021645
v -0.512390 3.311670 -0.881681
v 0.355807 3.182225 -0.099454
v 0.056378 3.184170 0.176935
v 0.201418 3.195209 0.040511
v -0.097308 3.243045 -0.065572
v 0.188687 3.267151 -0.338768
v 0.039461 3.268358 -0.199121
v -0.214849 3.272310 -0.230149
v 0.071259 3.302205 -0.496308
v -0.078560 3.300754 -0.359988
v -0.342793 3.293185 -0.395443
v -0.060975 3.323780 -0.667145
v -0.208514 3.321956 -0.527880
v -0.180653 3.327410 -0.815929
v -0.470031 3.303857 -0.547106
v -0.331669 3.328910 -0.678596
v -0.685563 3.082143 -0.662258
v -0.423313 2.834677 -0.852123
v -0.561932 2.951802 -0.748860
v 0.280797 2.719798 0.057539
v 0.018547 2.967263 0.247404
v 0.142178 2.836922 0.160803
v -0.141181 2.954216 0.036363
v 0.101962 2.694378 -0.136956
v -0.028795 2.817909 -0.040340
v -0.261943 2.962046 -0.120735
v -0.020056 2.699023 -0.283725
v -0.150738 2.824328 -0.192057
v -0.389860 2.982917 -0.285995
v -0.152324 2.720603 -0.454607
v -0.280695 2.845531 -0.359953
v -0.267350 2.754633 -0.614082
v -0.513927 3.015031 -0.445198
v -0.399923 2.878462 -0.519812
v -0.428563 2.832834 -0.857458
v -0.690805 3.080291 -0.667598
v -0.567178 2.949955 -0.754196
v 0.023003 2.963829 0.254594
v 0.285245 2.716372 0.064734
v 0.146630 2.833493 0.167996
v 0.101351 2.690555 -0.135550
v -0.141620 2.950490 0.037537
v -0.029338 2.814142 -0.039035
v -0.020678 2.695229 -0.282382
v -0.262412 2.958300 -0.119478
v -0.151293 2.820564 -0.190747
v -0.152912 2.716804 -0.453219
v -0.390355 2.979175 -0.284772
v -0.281247 2.841766 -0.358640
v -0.267988 2.750814 -0.612710
v -0.514344 3.011302 -0.443996
v -0.400468 2.874694 -0.518510
v -1.202400 3.378782 0.581307
v -1.619559 3.273155 0.100096
v -0.724326 3.444328 0.152480
v -1.141485 3.338700 -0.328731
v -0.189828 4.785470 -0.034863
v -0.872178 3.237394 -0.034863
v -0.452452 4.901227 -0.034863
v -1.134802 3.353151 -0.034863
v -0.840488 1.705557 -0.043195
v -0.377200 -0.023455 -0.043195
v -1.133807 1.626963 -0.043195
v -0.670520 -0.102050 -0.043195
v -0.134233 1.109613 0.344633
v -0.134233 2.223408 0.344633
v 0.048279 1.109613 0.295729
v 0.048279 2.223408 0.295729
v -0.085329 1.109613 0.527144
v -0.085329 2.223408 0.527144
v 0.097183 1.109613 0.478241
v 0.097183 2.223408 0.478241
v -0.060229 -0.010147 0.634405
v -0.137616 1.105738 0.345592
v 0.129075 -0.010147 0.583681
v 0.051688 1.105738 0.294868
v -0.011234 0.040577 0.817259
v -0.088621 1.156461 0.528447
v 0.178071 0.040577 0.766535
v 0.100684 1.156461 0.477723
v -0.132589 2.219800 0.343581
v -0.018610 3.218910 0.768956
v 0.046329 2.219800 0.295640
v 0.160308 3.218910 0.721015
v -0.088720 2.145091 0.507300
v 0.025259 3.144202 0.932675
v 0.090197 2.145091 0.459359
v 0.204176 3.144202 0.884734
v 0.551306 3.447082 1.858136
v -0.518165 3.746082 1.539655
v 0.332980 2.596915 1.793120
v -0.736491 2.895916 1.474639
v 0.662167 3.021637 1.086440
v -0.407304 3.320637 0.767959
v 0.662353 3.022361 1.086495
v -0.407119 3.321361 0.768015
v 0.544053 3.443338 1.850509
v -0.510888 3.738276 1.536356
v 0.328694 2.604722 1.786377
v -0.726248 2.899660 1.472223
v 0.653408 3.023673 1.089298
v -0.401533 3.318611 0.775144
v 0.653591 3.024387 1.089352
v -0.401350 3.319325 0.775199
v -0.503539 2.720488 1.544011
v 0.047172 2.566522 1.708008
v -0.336294 2.643166 1.593815
v -0.134720 2.586810 1.653842
v 0.408543 3.093412 1.010912
v -0.153265 3.250481 0.843610
v 0.221273 3.145768 0.955145
v 0.034004 3.198125 0.899378
v -0.232975 3.768244 1.619116
v 0.317735 3.614278 1.783114
v -0.051084 3.747956 1.673282
v 0.150490 3.691600 1.733309
v 0.406819 3.092523 1.015866
v -0.154988 3.249593 0.848564
v 0.219550 3.144880 0.960098
v 0.032281 3.197236 0.904331
v 0.318354 3.622510 1.788764
v -0.232357 3.776476 1.624767
v 0.151109 3.699832 1.738960
v -0.050465 3.756187 1.678933
v -0.153495 3.249585 0.843542
v 0.408313 3.092517 1.010844
v 0.033774 3.197229 0.899309
v 0.221044 3.144873 0.955077
v 0.050781 2.574754 1.703617
v -0.499929 2.728720 1.539619
v -0.131110 2.595042 1.649451
v -0.332685 2.651398 1.589423
v -0.154762 3.250474 0.848631
v 0.407046 3.093405 1.015933
v 0.032507 3.198118 0.904398
v 0.219777 3.145762 0.960166
v 0.580454 3.390564 1.678731
v 0.636399 3.195176 1.307427
v 0.614530 3.307688 1.486493
v -0.418542 3.490114 0.993274
v -0.474488 3.685502 1.364577
v -0.440411 3.602626 1.172339
v -0.200319 3.701595 1.441759
v -0.160227 3.476542 1.085763
v -0.173407 3.604717 1.255103
v -0.016071 3.676175 1.494982
v 0.026314 3.442278 1.145832
v 0.012339 3.574874 1.311258
v 0.182102 3.620770 1.553996
v 0.217968 3.388696 1.202905
v 0.207049 3.520437 1.369241
v 0.398243 3.320406 1.252071
v 0.353007 3.546897 1.606535
v 0.382641 3.449259 1.420690
v 0.644741 3.197348 1.309921
v 0.588796 3.392728 1.681213
v 0.622873 3.309854 1.488979
v -0.480675 3.691728 1.362733
v -0.424731 3.496348 0.991440
v -0.446599 3.608855 1.170499
v -0.158759 3.482379 1.086376
v -0.198754 3.707712 1.442166
v -0.171882 3.610696 1.255591
v 0.027780 3.448187 1.146379
v -0.014478 3.682230 1.495418
v 0.013871 3.580855 1.311736
v 0.219473 3.394593 1.203464
v 0.183643 3.626839 1.554417
v 0.208577 3.526419 1.369718
v 0.354613 3.553004 1.606954
v 0.399679 3.326253 1.252675
v 0.384168 3.455237 1.421179
v 0.548497 2.852883 1.281250
v 0.392199 2.657496 1.622670
v 0.468841 2.740372 1.443108
v -0.662742 2.952434 1.308516
v -0.506445 3.147821 0.967097
v -0.586100 3.035310 1.128954
v -0.276803 3.022592 1.051047
v -0.432854 2.796101 1.372512
v -0.355989 2.893739 1.200731
v -0.099000 2.954302 1.108514
v -0.261049 2.722227 1.422029
v -0.180858 2.822561 1.253726
v 0.092653 2.900719 1.165587
v -0.062876 2.666823 1.481044
v 0.013852 2.768124 1.311709
v 0.120472 2.641403 1.537288
v 0.281667 2.866456 1.217355
v 0.200058 2.738280 1.366318
v 0.398387 2.651270 1.624511
v 0.554680 2.846649 1.283101
v 0.475028 2.734143 1.444952
v -0.514792 3.145650 0.964621
v -0.671084 2.950270 1.306030
v -0.594444 3.033143 1.126472
v -0.434428 2.789994 1.371984
v -0.278336 3.016745 1.050768
v -0.357535 2.887760 1.200305
v -0.262569 2.716159 1.421538
v -0.100566 2.948405 1.108159
v -0.182398 2.816579 1.253288
v -0.064448 2.660768 1.480537
v 0.091127 2.894811 1.165243
v 0.012308 2.762143 1.311270
v 0.118939 2.635286 1.536772
v 0.280102 2.860618 1.217066
v 0.198515 2.732301 1.365893
v 0.776031 2.167671 0.517352
v 0.320373 2.092508 1.116379
v 0.645156 1.822934 0.498361
v 0.189498 1.747771 1.097389
v 0.311785 2.162093 0.225478
v -0.143873 2.086930 0.824506
v 0.311896 2.162386 0.225494
v -0.143762 2.087223 0.824522
v 0.769338 2.165952 0.519374
v 0.319871 2.091811 1.110263
v 0.640241 1.825899 0.500641
v 0.190774 1.751758 1.091531
v 0.311399 2.160450 0.231466
v -0.138068 2.086308 0.822355
v 0.311509 2.160739 0.231481
v -0.137958 2.086597 0.822371
v 0.284167 1.724271 0.949807
v 0.518803 1.762975 0.641346
v 0.354154 1.724976 0.851392
v 0.440036 1.739143 0.738487
v 0.203762 2.144581 0.367671
v -0.035601 2.105097 0.682349
v 0.123974 2.131420 0.472564
v 0.044187 2.118259 0.577456
v 0.442751 2.150263 0.971293
v 0.677386 2.188967 0.662831
v 0.521517 2.174095 0.874152
v 0.607400 2.188262 0.761247
v 0.206334 2.143087 0.369570
v -0.033029 2.103603 0.684247
v 0.126546 2.129926 0.474462
v 0.046759 2.116764 0.579355
v 0.681362 2.191171 0.664933
v 0.446727 2.152467 0.973395
v 0.611376 2.190465 0.763349
v 0.525493 2.176299 0.876254
v -0.035739 2.104734 0.682329
v 0.203624 2.144218 0.367651
v 0.044049 2.117896 0.577436
v 0.123837 2.131057 0.472544
v 0.517361 1.767447 0.639611
v 0.282726 1.728743 0.948073
v 0.438595 1.743615 0.736753
v 0.352712 1.729448 0.849658
v -0.032893 2.103961 0.684267
v 0.206470 2.143445 0.369589
v 0.046894 2.117122 0.579374
v 0.126682 2.130283 0.474482
v 0.670722 2.182437 0.454115
v 0.448399 2.183692 0.313615
v 0.557678 2.190816 0.381247
v -0.001068 2.109550 0.904504
v 0.221255 2.108295 1.045004
v 0.108210 2.116675 0.972136
v 0.339174 2.161807 0.904882
v 0.121001 2.146406 0.772172
v 0.227158 2.162658 0.835163
v 0.417746 2.184452 0.805383
v 0.204002 2.165257 0.671408
v 0.307733 2.183562 0.734724
v 0.502180 2.198380 0.694383
v 0.285658 2.178726 0.564060
v 0.390690 2.197246 0.625664
v 0.358943 2.185655 0.459364
v 0.574923 2.200695 0.594956
v 0.464067 2.201738 0.523712
v 0.452146 2.185905 0.309643
v 0.674462 2.184649 0.450138
v 0.561420 2.193028 0.377272
v 0.218804 2.109486 1.049166
v -0.003512 2.110741 0.908671
v 0.105762 2.117866 0.976300
v 0.121995 2.148739 0.772356
v 0.340077 2.164296 0.905009
v 0.228095 2.165075 0.835309
v 0.204958 2.167626 0.671590
v 0.418672 2.186920 0.805490
v 0.308665 2.185983 0.734864
v 0.286630 2.181098 0.564219
v 0.503083 2.200844 0.694519
v 0.391621 2.199667 0.625806
v 0.575844 2.203187 0.595060
v 0.359923 2.187986 0.459566
v 0.465005 2.204155 0.523856
v 0.395706 2.044894 0.305969
v 0.557873 1.885183 0.437740
v 0.470344 1.960773 0.368575
v 0.108406 1.811041 1.028629
v -0.053761 1.970752 0.896858
v 0.020877 1.886631 0.959464
v 0.051120 1.962332 0.762032
v 0.199781 1.794635 0.884656
v 0.117709 1.874361 0.819281
v 0.128883 1.967385 0.660508
v 0.270895 1.797633 0.784074
v 0.191921 1.878504 0.717919
v 0.210539 1.980855 0.553160
v 0.355328 1.811560 0.673074
v 0.274879 1.892188 0.608859
v 0.435531 1.833523 0.574729
v 0.289061 2.001581 0.449224
v 0.354619 1.913441 0.507830
v 0.560322 1.883993 0.433576
v 0.398159 2.043699 0.301809
v 0.472795 1.959582 0.364412
v -0.057499 1.968536 0.900837
v 0.104664 1.808830 1.032604
v 0.017137 1.884418 0.963440
v 0.198803 1.792168 0.884510
v 0.050315 1.959927 0.761955
v 0.116806 1.871930 0.819160
v 0.269954 1.795185 0.783911
v 0.128021 1.964968 0.660426
v 0.191011 1.876074 0.717792
v 0.354365 1.809108 0.672940
v 0.209693 1.978440 0.553056
v 0.273967 1.889758 0.608734
v 0.434569 1.831059 0.574560
v 0.288243 1.999174 0.449165
v 0.353716 1.911009 0.507708
v -0.465861 2.236342 0.191498
v -0.235557 2.168171 -0.148939
v -0.118675 2.278644 0.417897
v 0.111629 2.210473 0.077461
v -0.347616 2.898153 0.799947
v -0.570771 2.686409 0.518964
v -0.000653 2.820883 0.582621
v -0.223808 2.609139 0.301638
v -0.162562 0.466877 0.259945
v 0.204657 0.398706 0.075317
v 0.029863 0.509179 0.627053
v 0.397082 0.441009 0.442425
v 0.319349 1.196332 -1.350579
v 0.319349 2.507074 -1.350579
v 0.299769 1.196332 -1.129081
v 0.299769 2.507074 -1.129081
v 0.097852 1.196332 -1.370158
v 0.097852 2.507074 -1.370158
v 0.078272 1.196332 -1.148661
v 0.078272 2.507074 -1.148661
v -0.030852 -0.121430 -1.385689
v 0.319653 1.191771 -1.354706
v -0.051160 -0.121430 -1.155948
v 0.299344 1.191771 -1.124964
v -0.252765 -0.061736 -1.405306
v 0.097740 1.251464 -1.374322
v -0.273073 -0.061736 -1.175565
v 0.077431 1.251464 -1.144581
v 0.319848 2.502827 -1.348336
v -0.196390 3.678606 -1.393970
v 0.300654 2.502827 -1.131201
v -0.215584 3.678606 -1.176835
v 0.121158 2.414909 -1.365900
v -0.395080 3.590687 -1.411534
v 0.101964 2.414909 -1.148764
v -0.414275 3.590687 -1.194399
v -1.630426 3.947124 -1.203411
v -0.846823 4.298995 -2.257197
v -1.470458 2.946627 -1.418535
v -0.686855 3.298498 -2.472321
v -0.822055 3.446450 -0.769481
v -0.038452 3.798321 -1.823267
v -0.822191 3.447302 -0.769298
v -0.038588 3.799173 -1.823083
v -1.619069 3.942718 -1.208352
v -0.846112 4.289808 -2.247821
v -1.461274 2.955814 -1.420554
v -0.688317 3.302905 -2.460022
v -0.821680 3.448846 -0.780317
v -0.048723 3.795936 -1.819786
v -0.821814 3.449686 -0.780137
v -0.048858 3.796777 -1.819605
v -0.857539 3.092051 -2.242785
v -1.261046 2.910859 -1.700152
v -0.980080 3.001055 -2.077993
v -1.127774 2.934735 -1.879376
v -0.636224 3.530917 -1.019385
v -0.224587 3.715760 -1.572953
v -0.499012 3.592531 -1.203908
v -0.361799 3.654145 -1.388430
v -1.049738 4.325076 -1.973985
v -1.453245 4.143885 -1.431351
v -1.183011 4.301199 -1.794761
v -1.330704 4.234879 -1.596143
v -0.641005 3.529871 -1.023289
v -0.229367 3.714714 -1.576857
v -0.503792 3.591485 -1.207812
v -0.366580 3.653100 -1.392334
v -1.459742 4.153572 -1.432947
v -1.056235 4.334764 -1.975581
v -1.337201 4.244567 -1.597739
v -1.189507 4.310886 -1.796357
v -0.224418 3.714705 -1.573180
v -0.636056 3.529863 -1.019612
v -0.361631 3.653091 -1.388657
v -0.498843 3.591477 -1.204134
v -1.257647 2.920546 -1.694390
v -0.854141 3.101738 -2.237023
v -1.124375 2.944422 -1.873614
v -0.976681 3.010743 -2.072231
v -0.229533 3.715751 -1.576634
v -0.641171 3.530909 -1.023066
v -0.366746 3.654138 -1.392111
v -0.503958 3.592523 -1.207588
v -1.443856 3.880613 -1.098801
v -1.055958 3.650676 -0.887135
v -1.245089 3.783082 -0.983562
v -0.283000 3.997766 -1.926603
v -0.670899 4.227702 -2.138269
v -0.472132 4.130173 -2.023031
v -0.866848 4.246640 -1.866321
v -0.489475 3.981793 -1.678357
v -0.671361 4.132634 -1.761255
v -1.000029 4.216726 -1.684112
v -0.631149 3.941471 -1.496375
v -0.808388 4.097512 -1.578573
v -1.145231 4.151525 -1.488845
v -0.771574 3.878414 -1.307532
v -0.951052 4.033451 -1.386719
v -0.898667 3.798049 -1.128078
v -1.272271 4.064589 -1.321111
v -1.078778 3.949686 -1.213363
v -1.062080 3.653231 -0.878919
v -1.449967 3.883159 -1.090579
v -1.251204 3.785631 -0.975343
v -0.666363 4.235030 -2.144365
v -0.278476 4.005102 -1.932704
v -0.467601 4.137502 -2.029129
v -0.490746 3.988663 -1.676981
v -0.867930 4.253840 -1.864754
v -0.672516 4.139668 -1.759767
v -0.632346 3.948424 -1.494975
v -1.001154 4.223852 -1.682526
v -0.809534 4.104551 -1.577071
v -0.772799 3.885355 -1.306094
v -1.146317 4.158667 -1.487311
v -0.952195 4.040490 -1.385221
v -1.273383 4.071775 -1.319504
v -0.899914 3.804929 -1.126734
v -1.079934 3.956721 -1.211872
v -0.991551 3.247856 -0.973747
v -1.305922 3.017919 -1.284295
v -1.138342 3.115450 -1.127115
v -0.532965 3.365010 -2.323762
v -0.218594 3.594947 -2.013216
v -0.365385 3.462540 -2.166583
v -0.404059 3.447573 -1.793223
v -0.696470 3.181034 -2.095445
v -0.537582 3.295937 -1.941159
v -0.539331 3.367208 -1.619851
v -0.820533 3.094097 -1.925496
v -0.666832 3.212172 -1.768936
v -0.679756 3.304151 -1.431009
v -0.965735 3.028896 -1.730230
v -0.809496 3.148109 -1.577082
v -1.101893 2.998982 -1.550235
v -0.813251 3.263829 -1.242944
v -0.945000 3.112988 -1.393267
v -1.310453 3.010593 -1.278196
v -0.996092 3.240520 -0.967659
v -1.142878 3.108120 -1.121020
v -0.212489 3.592391 -2.021444
v -0.526850 3.362463 -2.331982
v -0.359274 3.459991 -2.174805
v -0.695251 3.173847 -2.096972
v -0.403132 3.440693 -1.794805
v -0.536488 3.288901 -1.942696
v -0.819377 3.086955 -1.926979
v -0.538306 3.360268 -1.621439
v -0.665727 3.205132 -1.770462
v -0.964541 3.021770 -1.731763
v -0.678760 3.297198 -1.432557
v -0.808388 3.141071 -1.578612
v -1.100704 2.991782 -1.551721
v -0.812300 3.256959 -1.244557
v -0.943906 3.105953 -1.394802
v -0.238877 2.441481 -0.413981
v -0.717241 2.353027 -1.159411
v -0.165076 2.035786 -0.551000
v -0.643440 1.947332 -1.296430
v 0.271107 2.434917 -0.809431
v -0.207257 2.346463 -1.554862
v 0.271045 2.435261 -0.809315
v -0.207320 2.346808 -1.554745
v -0.238412 2.439459 -0.422196
v -0.710277 2.352207 -1.157498
v -0.165614 2.039275 -0.557353
v -0.637478 1.952024 -1.292656
v 0.264644 2.432984 -0.812274
v -0.207221 2.345731 -1.547576
v 0.264582 2.433324 -0.812159
v -0.207283 2.346072 -1.547462
v -0.518489 1.919677 -1.132226
v -0.272161 1.965225 -0.748376
v -0.437930 1.920507 -1.015146
v -0.347768 1.937179 -0.874647
v 0.157501 2.414309 -0.986224
v -0.093791 2.367843 -1.377809
v 0.073737 2.398820 -1.116752
v -0.010027 2.383332 -1.247280
v -0.606229 2.420995 -0.965582
v -0.359901 2.466543 -0.581732
v -0.530621 2.449041 -0.839311
v -0.440459 2.465713 -0.698812
v 0.154364 2.412550 -0.984146
v -0.096927 2.366084 -1.375731
v 0.070600 2.397062 -1.114675
v -0.013163 2.381573 -1.245203
v -0.363829 2.469137 -0.578185
v -0.610157 2.423588 -0.962035
v -0.444387 2.468306 -0.695265
v -0.534549 2.451635 -0.835764
v -0.093713 2.367415 -1.377953
v 0.157578 2.413882 -0.986368
v -0.009949 2.382904 -1.247424
v 0.073815 2.398393 -1.116896
v -0.269662 1.970487 -0.749270
v -0.515990 1.924939 -1.133119
v -0.345269 1.942441 -0.875541
v -0.435431 1.925769 -1.016040
v -0.097004 2.366505 -1.375589
v 0.154288 2.412971 -0.984004
v -0.013240 2.381994 -1.245061
v 0.070524 2.397482 -1.114532
v -0.126478 2.458859 -0.504883
v 0.118550 2.460335 -0.693969
v -0.000310 2.468719 -0.600452
v -0.353315 2.373084 -1.429271
v -0.598343 2.371607 -1.240186
v -0.472175 2.381468 -1.335754
v -0.491019 2.434580 -1.053289
v -0.256278 2.416456 -1.240929
v -0.368747 2.435582 -1.148990
v -0.412727 2.461230 -0.926281
v -0.178374 2.438640 -1.108514
v -0.290224 2.460182 -1.019389
v -0.324086 2.477620 -0.788152
v -0.092650 2.454491 -0.974930
v -0.203133 2.476286 -0.883675
v -0.006480 2.462645 -0.851671
v -0.243521 2.480345 -0.667616
v -0.120032 2.481572 -0.761420
v 0.121429 2.462939 -0.688224
v -0.123591 2.461462 -0.499144
v 0.002574 2.471323 -0.594710
v -0.601955 2.373008 -1.244574
v -0.356935 2.374485 -1.433654
v -0.475790 2.382869 -1.340140
v -0.256882 2.419201 -1.239904
v -0.491524 2.437510 -1.052343
v -0.369286 2.438426 -1.148013
v -0.178961 2.441428 -1.107532
v -0.413219 2.464134 -0.925301
v -0.290755 2.463032 -1.018415
v -0.093218 2.457283 -0.973920
v -0.324601 2.480520 -0.787209
v -0.203665 2.479135 -0.882704
v -0.244008 2.483277 -0.666641
v -0.007098 2.465389 -0.850669
v -0.120571 2.484416 -0.760442
v 0.148264 2.296994 -0.749135
v -0.062842 2.109042 -0.623030
v 0.048937 2.197999 -0.691884
v -0.534706 2.021790 -1.358332
v -0.323601 2.209743 -1.484438
v -0.422927 2.110747 -1.427187
v -0.216871 2.199832 -1.314091
v -0.412415 2.002483 -1.199225
v -0.307028 2.096307 -1.263577
v -0.136014 2.205780 -1.187160
v -0.329917 2.006011 -1.080026
v -0.224917 2.101182 -1.140638
v -0.050289 2.221632 -1.053576
v -0.241276 2.022401 -0.941897
v -0.137826 2.117286 -1.004923
v -0.164917 2.048248 -0.813552
v 0.032927 2.246022 -0.924833
v -0.058314 2.142297 -0.876007
v -0.059226 2.107642 -0.618643
v 0.151873 2.295588 -0.744745
v 0.052550 2.196596 -0.687496
v -0.326492 2.207134 -1.490175
v -0.537590 2.019188 -1.364073
v -0.425814 2.108143 -1.432926
v -0.411858 1.999580 -1.200248
v -0.216461 2.197003 -1.314949
v -0.306530 2.093446 -1.264527
v -0.329356 2.003130 -1.081000
v -0.135575 2.202935 -1.188080
v -0.224410 2.098323 -1.141592
v -0.240738 2.019516 -0.942908
v -0.049833 2.218789 -1.054469
v -0.137320 2.114426 -1.005880
v -0.164343 2.045347 -0.814547
v 0.033323 2.243190 -0.925714
v -0.057814 2.139435 -0.876956
v 0.622448 1.877338 -1.655401
v 0.905871 1.797113 -1.263438
v 0.232078 1.927120 -1.362941
v 0.515501 1.846895 -0.970977
v -0.097898 3.301131 -1.770189
v 0.302768 3.051946 -1.903509
v 0.002356 3.210198 -1.298934
v 0.403022 2.961012 -1.432254
v 0.424400 0.439944 -1.347725
v 0.480334 0.359719 -0.867271
v -0.059076 0.489726 -1.283127
v -0.003142 0.409502 -0.802673
v -0.985697 0.860351 -0.396286
v -0.985697 1.823700 -0.396286
v -0.828349 0.860351 -0.239168
v -0.828349 1.823700 -0.239168
v -1.142815 0.860351 -0.238939
v -1.142815 1.823700 -0.238939
v -0.985468 0.860351 -0.081820
v -0.985468 1.823700 -0.081820
v -1.237297 -0.108157 -0.150175
v -0.988668 0.856999 -0.399167
v -1.074093 -0.108157 0.012791
v -0.825464 0.856999 -0.236201
v -1.394710 -0.064285 0.007468
v -1.146081 0.900872 -0.241524
v -1.231506 -0.064285 0.170434
v -0.982877 0.900872 -0.078558
v -0.983657 1.820579 -0.395231
v -1.349848 2.684735 -0.028505
v -0.829408 1.820579 -0.241206
v -1.195599 2.684735 0.125519
v -1.124597 1.755962 -0.254085
v -1.490789 2.620117 0.112641
v -0.970348 1.755962 -0.100060
v -1.336540 2.620117 0.266665
v -2.123661 2.882086 1.193783
v -2.429299 3.140699 -0.083355
v -2.186055 2.146756 0.933063
v -2.491694 2.405369 -0.344076
v -1.272196 2.514108 0.852071
v -1.577835 2.772721 -0.425067
v -1.272142 2.514734 0.852293
v -1.577781 2.773347 -0.424846
v -2.120165 2.878848 1.181901
v -2.421651 3.133947 -0.077886
v -2.181711 2.153508 0.924723
v -2.483198 2.408607 -0.335064
v -1.280268 2.515870 0.844832
v -1.581754 2.770968 -0.414955
v -1.280215 2.516487 0.845050
v -1.581702 2.771586 -0.414736
v -2.425119 2.253637 -0.065889
v -2.267735 2.120468 0.591757
v -2.377324 2.186759 0.133831
v -2.319717 2.138016 0.374546
v -1.344677 2.576188 0.549199
v -1.505234 2.712041 -0.121699
v -1.398196 2.621472 0.325566
v -1.451715 2.666757 0.101934
v -2.342227 3.159867 0.253991
v -2.184843 3.026698 0.911637
v -2.290246 3.142319 0.471201
v -2.232639 3.093576 0.711917
v -1.350739 2.575419 0.550361
v -1.511295 2.711273 -0.120537
v -1.404258 2.620704 0.326729
v -1.457777 2.665988 0.103096
v -2.190235 3.033818 0.915597
v -2.347620 3.166987 0.257950
v -2.238031 3.100696 0.715876
v -2.295638 3.149438 0.475161
v -1.505300 2.711267 -0.121974
v -1.344743 2.575414 0.548925
v -1.451781 2.665982 0.101659
v -1.398262 2.620698 0.325292
v -2.261134 2.127588 0.592846
v -2.418519 2.260757 -0.064800
v -2.313116 2.145136 0.375636
v -2.370723 2.193879 0.134920
v -1.511231 2.712035 -0.120266
v -1.350674 2.576182 0.550632
v -1.457712 2.666751 0.103366
v -1.404193 2.621467 0.326999
v -1.923723 2.833203 1.117779
v -1.512504 2.664207 0.956016
v -1.707808 2.761521 1.039236
v -1.813990 2.919306 -0.303770
v -2.225209 3.088301 -0.142008
v -2.009294 3.016620 -0.220551
v -2.142309 3.102220 0.182767
v -1.756024 2.907567 0.013873
v -1.936301 3.018429 0.100214
v -2.087978 3.080234 0.401823
v -1.707317 2.877931 0.239299
v -1.884075 2.992616 0.322524
v -2.031343 3.032313 0.638477
v -1.652545 2.831587 0.468167
v -1.828430 2.945533 0.555042
v -1.596421 2.772521 0.680786
v -1.984177 2.968418 0.843537
v -1.777391 2.883969 0.764234
v -1.510129 2.666085 0.965984
v -1.921336 2.835074 1.127740
v -1.705426 2.763395 1.049199
v -2.226975 3.093687 -0.149398
v -1.815768 2.924697 -0.311155
v -2.011065 3.022007 -0.227939
v -1.755784 2.912616 0.015731
v -2.141801 3.107512 0.184602
v -1.935900 3.023599 0.102055
v -1.707011 2.883042 0.241115
v -2.087484 3.085471 0.403703
v -1.883659 2.997789 0.324367
v -1.652228 2.836688 0.470030
v -2.030864 3.037562 0.640295
v -1.828015 2.950707 0.556880
v -1.983657 2.973701 0.845420
v -1.596191 2.777578 0.682604
v -1.776989 2.889140 0.766078
v -1.537625 2.368149 0.851045
v -1.977524 2.199153 0.892969
v -1.749444 2.270835 0.865257
v -2.279009 2.454253 -0.366818
v -1.839111 2.623248 -0.408742
v -2.050930 2.525934 -0.394530
v -1.789340 2.514934 -0.125339
v -2.208764 2.319036 -0.094920
v -1.988480 2.403486 -0.117821
v -1.743129 2.455868 0.089652
v -2.157989 2.255141 0.109276
v -1.939288 2.341922 0.091812
v -1.688358 2.409523 0.318520
v -2.101354 2.207221 0.345930
v -1.883643 2.294838 0.324331
v -2.050632 2.185235 0.565850
v -1.629737 2.379889 0.541573
v -1.829570 2.269026 0.546198
v -1.975752 2.193769 0.900357
v -1.535868 2.362757 0.858435
v -1.747678 2.265447 0.872646
v -1.841506 2.621370 -0.418704
v -2.281392 2.452381 -0.376781
v -2.053317 2.524060 -0.404493
v -2.209153 2.313755 -0.096834
v -1.789958 2.509877 -0.127065
v -1.988957 2.398315 -0.119647
v -2.158384 2.249892 0.107438
v -1.743690 2.450768 0.087847
v -1.939750 2.336748 0.089986
v -2.101764 2.201984 0.344030
v -1.688907 2.404414 0.316762
v -1.884105 2.289665 0.322499
v -2.051009 2.179944 0.563984
v -1.630364 2.374839 0.539808
v -1.830046 2.263855 0.544375
v -0.625364 1.775492 0.632787
v -1.504066 1.710481 0.521514
v -0.683124 1.477320 0.488272
v -1.561826 1.412310 0.376999
v -0.601536 1.770667 -0.012114
v -1.480238 1.705657 -0.123387
v -0.601487 1.770921 -0.011991
v -1.480189 1.705910 -0.123264
v -0.631367 1.774005 0.627160
v -1.498131 1.709878 0.517399
v -0.688342 1.479885 0.484609
v -1.555106 1.415758 0.374847
v -0.607864 1.769246 -0.008980
v -1.474627 1.705119 -0.118740
v -0.607815 1.769496 -0.008858
v -1.474579 1.705369 -0.118619
v -1.355705 1.391984 0.386494
v -0.903228 1.425460 0.443792
v -1.214213 1.392594 0.399809
v -1.048595 1.404847 0.420781
v -0.810035 1.755521 -0.038386
v -1.271629 1.721370 -0.096840
v -0.963900 1.744137 -0.057871
v -1.117765 1.732754 -0.077355
v -1.284162 1.760435 0.560706
v -0.831686 1.793911 0.618004
v -1.138796 1.781048 0.583716
v -0.973178 1.793301 0.604689
v -0.810454 1.754228 -0.034648
v -1.272048 1.720078 -0.093101
v -0.964319 1.742845 -0.054132
v -1.118183 1.731461 -0.073616
v -0.831485 1.795818 0.623294
v -1.283961 1.762341 0.565995
v -0.972977 1.795207 0.609978
v -1.138595 1.782954 0.589005
v -1.271690 1.721056 -0.096992
v -0.810096 1.755207 -0.038539
v -1.117826 1.732440 -0.077507
v -0.963961 1.743823 -0.058023
v -0.902311 1.429328 0.441301
v -1.354787 1.395852 0.384003
v -1.047678 1.408715 0.418291
v -1.213295 1.396462 0.397318
v -1.271988 1.720387 -0.092951
v -0.810394 1.754538 -0.034498
v -1.118124 1.731771 -0.073466
v -0.964259 1.743154 -0.053982
v -0.622986 1.788264 0.488249
v -0.610838 1.789349 0.178985
v -0.615354 1.795511 0.330156
v -1.477601 1.725222 0.069224
v -1.489749 1.724136 0.378488
v -1.482118 1.731384 0.220396
v -1.277530 1.770420 0.416062
v -1.270872 1.757099 0.115616
v -1.272500 1.771156 0.260873
v -1.129876 1.790006 0.437486
v -1.119320 1.773404 0.140806
v -1.122709 1.789236 0.283783
v -0.967053 1.802052 0.458105
v -0.961853 1.785053 0.160747
v -0.962731 1.801072 0.304041
v -0.812021 1.791046 0.173722
v -0.822905 1.804055 0.473633
v -0.815638 1.804957 0.318727
v -0.604583 1.791263 0.180462
v -0.616732 1.790177 0.489717
v -0.609100 1.797424 0.331627
v -1.495433 1.725166 0.378444
v -1.483285 1.726252 0.069189
v -1.487802 1.732414 0.220355
v -1.270473 1.759117 0.116737
v -1.277128 1.772573 0.417057
v -1.272097 1.773247 0.261913
v -1.118942 1.775453 0.141886
v -1.129440 1.792141 0.438492
v -1.122302 1.791330 0.284815
v -0.961443 1.787105 0.161831
v -0.966659 1.804184 0.459105
v -0.962328 1.803166 0.305073
v -0.822469 1.806210 0.474632
v -0.811648 1.793063 0.174839
v -0.815233 1.807047 0.319767
v -0.634093 1.669299 0.120800
v -0.672790 1.531161 0.363639
v -0.653897 1.596541 0.233721
v -1.539553 1.467034 0.253878
v -1.500856 1.605172 0.011039
v -1.520661 1.532414 0.123960
v -1.301713 1.597888 0.038452
v -1.339049 1.452844 0.262142
v -1.320803 1.521801 0.140017
v -1.152473 1.602260 0.057858
v -1.194687 1.455436 0.275330
v -1.173820 1.525383 0.155901
v -0.995006 1.613910 0.077798
v -1.031863 1.467483 0.295949
v -1.013843 1.537220 0.176159
v -0.884424 1.486479 0.319713
v -0.842861 1.631836 0.096558
v -0.863942 1.555602 0.197871
v -0.667106 1.530131 0.363680
v -0.628410 1.668265 0.120849
v -0.648214 1.595510 0.233765
v -1.507112 1.603255 0.009576
v -1.545807 1.465121 0.252407
v -1.526916 1.530500 0.122493
v -1.339477 1.450710 0.261059
v -1.302108 1.595809 0.037587
v -1.321212 1.519698 0.139026
v -1.195074 1.453319 0.274275
v -1.152897 1.600169 0.056931
v -1.174227 1.523282 0.154899
v -1.032294 1.465362 0.294888
v -0.995398 1.611821 0.076876
v -1.014252 1.535118 0.175157
v -0.884819 1.484347 0.318634
v -0.843283 1.629755 0.095689
v -0.864349 1.553499 0.196879
v -1.025074 1.834887 -0.824346
v -0.542576 1.775924 -0.790299
v -1.051168 1.871475 -0.337272
v -0.568669 1.812512 -0.303224
v -0.841117 3.358741 -0.037746
v -0.841117 1.632967 -0.037746
v -1.133887 3.358741 -0.037746
v -1.133887 1.632967 -0.037746
v -0.916113 0.304433 -0.475040
v -0.511678 0.245470 -0.209717
v -1.176729 0.341021 -0.062727
v -0.772294 0.282059 0.202596
v 0.501982 1.196332 -1.236358
v 0.501982 2.507074 -1.236358
v 0.280485 1.196332 -1.255938
v 0.280485 2.507074 -1.255938
v 0.151782 -0.121430 -1.271469
v 0.502286 1.191771 -1.240485
v -0.070131 -0.061736 -1.291085
v 0.280373 1.251464 -1.260102
v 0.502482 2.502827 -1.234116
v -0.013756 3.678606 -1.279750
v 0.303791 2.414909 -1.251679
v -0.212447 3.590687 -1.297313
v 0.446407 0.529348 -0.739818
v 0.208065 -0.141524 -0.485334
v -0.218686 0.836532 -0.552926
v -0.457028 0.165660 -0.298442
v -0.912692 0.529348 0.130744
v -0.599435 -0.141524 0.283841
v -0.538722 0.836532 0.711625
v -0.225464 0.165660 0.864723
vn -1.0000 -0.0000 -0.0000
vn -0.0000 -0.0000 -1.0000
vn 1.0000 -0.0000 -0.0000
vn -0.0000 -0.0000 1.0000
vn -0.0000 -1.0000 -0.0000
vn -0.0000 1.0000 -0.0000
vn -0.9659 -0.2588 -0.0000
vn 0.9659 0.2588 -0.0000
vn 0.2588 -0.9659 -0.0000
vn -0.2588 0.9659 -0.0000
vn -0.9151 0.4033 -0.0000
vn 0.9151 -0.4033 -0.0000
vn -0.4033 -0.9151 -0.0000
vn 0.4033 0.9151 -0.0000
vn 0.5112 -0.7207 0.4683
vn -0.3061 0.9469 -0.0983
vn 0.3066 -0.9469 0.0967
vn -0.5487 -0.7817 0.2963
vn -0.5118 0.7204 -0.4682
vn 0.7092 0.6897 0.1463
vn 0.5490 0.7810 -0.2977
vn -0.5048 -0.8547 0.1208
vn -0.3697 -0.9239 -0.0990
vn 0.2548 -0.9241 0.2848
vn 0.1196 -0.8549 0.5049
vn -0.4509 0.6892 -0.5671
vn -0.5376 0.6688 -0.5135
vn -0.5148 0.6571 -0.5506
vn 0.2246 0.9469 0.2299
vn 0.7232 0.6577 0.2106
vn 0.7006 0.6693 0.2474
vn -0.2259 -0.9469 -0.2288
vn -0.7096 -0.6892 -0.1464
vn 0.5144 -0.6577 0.5503
vn 0.5346 -0.6545 0.5346
vn 0.1964 -0.8943 0.4020
vn -0.0178 -0.7810 0.6243
vn 0.5370 -0.6693 0.5135
vn -0.1201 0.8547 -0.5050
vn -0.1968 0.8942 -0.4022
vn -0.5351 0.6541 -0.5347
vn -0.2552 0.9239 -0.2852
vn 0.0167 0.7817 -0.6234
vn 0.3692 0.9241 0.0988
vn 0.4474 0.8943 -0.0062
vn 0.7183 0.6545 0.2358
vn 0.5045 0.8549 -0.1212
vn 0.6486 0.7207 0.2448
vn -0.6488 -0.7204 -0.2453
vn -0.7009 -0.6688 -0.2479
vn -0.7186 -0.6541 -0.2361
vn -0.4477 -0.8942 0.0060
vn -0.7237 -0.6571 -0.2108
vn 0.4005 -0.7270 0.5578
vn 0.2388 -0.8132 0.5307
vn 0.4449 -0.7389 0.5060
vn 0.3021 -0.8404 0.4500
vn 0.4695 -0.7623 0.4455
vn 0.3455 -0.8678 0.3572
vn 0.1103 -0.7690 0.6297
vn 0.2947 -0.7241 0.6235
vn 0.3767 -0.9053 0.1963
vn 0.4733 -0.8155 0.3329
vn -0.2394 0.8130 -0.5308
vn -0.4009 0.7265 -0.5581
vn -0.3024 0.8402 -0.4502
vn -0.4453 0.7386 -0.5061
vn -0.3459 0.8675 -0.3575
vn -0.4701 0.7619 -0.4455
vn -0.3764 0.9051 -0.1978
vn -0.4736 0.8153 -0.3333
vn -0.1114 0.7695 -0.6288
vn -0.2951 0.7240 -0.6235
vn 0.4747 0.8678 0.1470
vn 0.6095 0.7623 0.2178
vn 0.5379 0.8404 0.0664
vn 0.6523 0.7389 0.1686
vn 0.5814 0.8132 -0.0265
vn 0.6785 0.7270 0.1056
vn 0.6894 0.7241 -0.0185
vn 0.6116 0.7690 -0.1859
vn 0.5108 0.8155 0.2721
vn 0.3452 0.9053 0.2475
vn -0.5111 -0.8153 -0.2722
vn -0.3464 -0.9051 -0.2466
vn -0.6098 -0.7619 -0.2184
vn -0.4752 -0.8675 -0.1473
vn -0.6526 -0.7386 -0.1689
vn -0.5382 -0.8402 -0.0666
vn -0.6790 -0.7265 -0.1058
vn -0.5817 -0.8130 0.0260
vn -0.6896 -0.7240 0.0181
vn -0.6114 -0.7695 0.1845
vn 0.4507 -0.6897 0.5667
vn 0.0521 -0.9744 -0.2188
vn 0.2847 0.9464 0.1528
vn -0.2855 -0.9460 -0.1534
vn -0.3187 -0.8482 0.4230
vn -0.0523 0.9743 0.2192
vn 0.6065 0.6605 -0.4426
vn 0.3177 0.8482 -0.4238
vn -0.4237 -0.8417 0.3346
vn -0.5226 -0.8307 0.1918
vn -0.1911 -0.9780 -0.0835
vn -0.0765 -0.9960 0.0464
vn -0.1157 0.9809 0.1565
vn -0.1152 0.9657 0.2327
vn -0.1400 0.9679 0.2087
vn 0.5632 0.8227 -0.0772
vn 0.6476 0.6187 -0.4448
vn 0.6660 0.6192 -0.4159
vn -0.5629 -0.8228 0.0781
vn -0.6066 -0.6602 0.4430
vn 0.1393 -0.9681 -0.2084
vn 0.1362 -0.9643 -0.2272
vn -0.1310 -0.9911 -0.0237
vn -0.0072 -0.9861 0.1660
vn 0.1147 -0.9659 -0.2322
vn 0.0763 0.9960 -0.0461
vn 0.1308 0.9911 0.0239
vn -0.1367 0.9641 0.2276
vn 0.1908 0.9781 0.0836
vn 0.0078 0.9863 -0.1649
vn 0.5224 0.8309 -0.1915
vn 0.4796 0.8363 -0.2656
vn 0.6622 0.6097 -0.4356
vn 0.4234 0.8419 -0.3345
vn 0.6545 0.6607 -0.3677
vn -0.6548 -0.6603 0.3678
vn -0.6664 -0.6186 0.4161
vn -0.6625 -0.6093 0.4358
vn -0.4798 -0.8362 0.2658
vn -0.6479 -0.6181 0.4452
vn 0.0768 -0.9896 -0.1216
vn -0.0184 -0.9996 -0.0203
vn 0.0498 -0.9854 -0.1630
vn -0.0617 -0.9950 -0.0779
vn 0.0078 -0.9815 -0.1914
vn -0.1145 -0.9856 -0.1243
vn 0.0308 -0.9958 0.0864
vn 0.0933 -0.9950 -0.0348
vn -0.2075 -0.9623 -0.1761
vn -0.0801 -0.9735 -0.2142
vn 0.0181 0.9996 0.0207
vn -0.0774 0.9895 0.1218
vn 0.0614 0.9951 0.0781
vn -0.0501 0.9853 0.1632
vn 0.1140 0.9856 0.1245
vn -0.0082 0.9814 0.1918
vn 0.2067 0.9625 0.1756
vn 0.0798 0.9735 0.2143
vn -0.0303 0.9959 -0.0854
vn -0.0935 0.9950 0.0351
vn 0.5665 0.7849 -0.2510
vn 0.6310 0.6978 -0.3389
vn 0.5333 0.7856 -0.3136
vn 0.6104 0.6923 -0.3850
vn 0.4874 0.7913 -0.3690
vn 0.5776 0.6990 -0.4217
vn 0.5047 0.7295 -0.4617
vn 0.3947 0.8069 -0.4396
vn 0.6420 0.7240 -0.2522
vn 0.5955 0.7900 -0.1460
vn -0.6422 -0.7238 0.2525
vn -0.5953 -0.7900 0.1469
vn -0.6314 -0.6974 0.3391
vn -0.5667 -0.7846 0.2513
vn -0.6106 -0.6919 0.3852
vn -0.5335 -0.7854 0.3138
vn -0.5778 -0.6986 0.4221
vn -0.4877 -0.7911 0.3692
vn -0.5050 -0.7292 0.4618
vn -0.3955 -0.8068 0.4389
vn 0.1152 -0.9810 -0.1564
vn -0.1844 0.9813 -0.0556
vn -0.2588 -0.0000 -0.9659
vn 0.9659 -0.0000 -0.2588
vn 0.2588 -0.0000 0.9659
vn -0.9659 -0.0000 0.2588
vn -0.2500 -0.2588 -0.9330
vn 0.2500 0.2588 0.9330
vn 0.0670 -0.9659 0.2500
vn -0.0670 0.9659 -0.2500
vn -0.2368 0.4033 -0.8839
vn 0.2368 -0.4033 0.8839
vn -0.1044 -0.9151 -0.3896
vn 0.1044 0.9151 0.3896
vn -0.3200 -0.7207 0.6150
vn 0.0157 0.9469 -0.3212
vn -0.0140 -0.9469 0.3211
vn -0.4282 -0.7817 -0.4533
vn 0.3198 0.7204 -0.6155
vn 0.0422 0.6897 0.7229
vn 0.4297 0.7810 0.4533
vn -0.2473 -0.8547 -0.4563
vn -0.0001 -0.9239 -0.3827
vn -0.2092 -0.9241 0.3199
vn -0.4567 -0.8549 0.2462
vn 0.4311 0.6892 -0.5824
vn 0.3568 0.6688 -0.6522
vn 0.3986 0.6571 -0.6398
vn -0.1639 0.9469 0.2765
vn -0.0162 0.6577 0.7531
vn -0.0576 0.6693 0.7407
vn 0.1625 -0.9469 -0.2774
vn -0.0422 -0.6892 -0.7233
vn -0.3984 -0.6577 0.6393
vn -0.3780 -0.6545 0.6548
vn -0.3375 -0.8943 0.2938
vn -0.6077 -0.7810 0.1443
vn -0.3570 -0.6693 0.6516
vn 0.4567 0.8547 -0.2467
vn 0.3376 0.8942 -0.2942
vn 0.3780 0.6541 -0.6552
vn 0.2095 0.9239 -0.3203
vn 0.6065 0.7817 -0.1452
vn 0.0001 0.9241 0.3822
vn 0.1218 0.8943 0.4305
vn -0.0418 0.6545 0.7549
vn 0.2477 0.8549 0.4559
vn -0.0686 0.7207 0.6899
vn 0.0691 -0.7204 -0.6902
vn 0.0581 -0.6688 -0.7412
vn 0.0420 -0.6541 -0.7552
vn -0.1217 -0.8942 -0.4309
vn 0.0163 -0.6571 -0.7536
vn -0.4351 -0.7270 0.5312
vn -0.4509 -0.8132 0.3680
vn -0.3736 -0.7389 0.5607
vn -0.3565 -0.8404 0.4082
vn -0.3088 -0.7623 0.5688
vn -0.2556 -0.8678 0.4262
vn -0.5797 -0.7690 0.2695
vn -0.5260 -0.7241 0.4460
vn -0.0921 -0.9053 0.4147
vn -0.1991 -0.8155 0.5434
vn 0.4508 0.8130 -0.3686
vn 0.4353 0.7265 -0.5317
vn 0.3566 0.8402 -0.4086
vn 0.3736 0.7386 -0.5612
vn 0.2558 0.8675 -0.4267
vn 0.3087 0.7619 -0.5694
vn 0.0936 0.9051 -0.4148
vn 0.1993 0.8153 -0.5437
vn 0.5786 0.7695 -0.2703
vn 0.5259 0.7240 -0.4465
vn -0.0192 0.8678 0.4966
vn -0.0526 0.7623 0.6451
vn 0.0751 0.8404 0.5368
vn 0.0060 0.7389 0.6737
vn 0.1761 0.8132 0.5547
vn 0.0736 0.7270 0.6827
vn 0.1963 0.7241 0.6611
vn 0.3378 0.7690 0.5427
vn -0.1306 0.8155 0.5638
vn -0.1497 0.9053 0.3975
vn 0.1306 -0.8153 -0.5642
vn 0.1485 -0.9051 -0.3984
vn 0.0531 -0.7619 -0.6455
vn 0.0193 -0.8675 -0.4971
vn -0.0057 -0.7386 -0.6741
vn -0.0749 -0.8402 -0.5371
vn -0.0735 -0.7265 -0.6832
vn -0.1757 -0.8130 -0.5552
vn -0.1960 -0.7240 -0.6614
vn -0.3364 -0.7695 -0.5428
vn -0.4308 -0.6897 0.5820
vn 0.2248 -0.9744 -0.0063
vn -0.0739 0.9464 0.3145
vn 0.0743 -0.9460 -0.3154
vn -0.4911 -0.8482 -0.1984
vn -0.2253 0.9743 0.0062
vn 0.5845 0.6605 0.4713
vn 0.4916 0.8482 0.1972
vn -0.4329 -0.8417 -0.3227
vn -0.3205 -0.8307 -0.4551
vn 0.0312 -0.9780 -0.2062
vn -0.0646 -0.9960 -0.0618
vn -0.1812 0.9809 -0.0712
vn -0.2546 0.9657 -0.0510
vn -0.2379 0.9679 -0.0812
vn 0.2203 0.8227 0.5240
vn 0.5972 0.6187 0.5105
vn 0.5741 0.6192 0.5357
vn -0.2212 -0.8228 -0.5235
vn -0.5849 -0.6602 -0.4712
vn 0.2374 -0.9681 0.0806
vn 0.2548 -0.9643 0.0728
vn -0.0110 -0.9911 -0.1327
vn -0.1622 -0.9861 0.0360
vn 0.2540 -0.9659 0.0507
vn 0.0643 0.9960 0.0617
vn 0.0107 0.9911 0.1325
vn -0.2552 0.9641 -0.0731
vn -0.0314 0.9781 0.2059
vn 0.1613 0.9863 -0.0351
vn 0.3202 0.8309 0.4550
vn 0.3807 0.8363 0.3945
vn 0.5921 0.6097 0.5269
vn 0.4327 0.8419 0.3224
vn 0.5246 0.6607 0.5370
vn -0.5247 -0.6603 -0.5373
vn -0.5744 -0.6186 -0.5360
vn -0.5924 -0.6093 -0.5271
vn -0.3809 -0.8362 -0.3947
vn -0.5977 -0.6181 -0.5106
vn 0.1373 -0.9896 0.0428
vn 0.0149 -0.9996 -0.0230
vn 0.1703 -0.9854 0.0059
vn 0.0593 -0.9950 -0.0798
vn 0.1869 -0.9815 -0.0420
vn 0.0904 -0.9856 -0.1427
vn -0.0755 -0.9958 0.0521
vn 0.0577 -0.9950 0.0812
vn 0.1164 -0.9623 -0.2460
vn 0.1862 -0.9735 -0.1328
vn -0.0153 0.9996 0.0228
vn -0.1377 0.9895 -0.0433
vn -0.0596 0.9951 0.0796
vn -0.1706 0.9853 -0.0062
vn -0.0907 0.9856 0.1424
vn -0.1874 0.9814 0.0418
vn -0.1161 0.9625 0.2451
vn -0.1864 0.9735 0.1325
vn 0.0747 0.9959 -0.0514
vn -0.0581 0.9950 -0.0813
vn 0.3891 0.7849 0.4823
vn 0.4907 0.6978 0.5218
vn 0.4410 0.7856 0.4340
vn 0.5299 0.6923 0.4899
vn 0.4826 0.7913 0.3753
vn 0.5568 0.6990 0.4487
vn 0.5766 0.7295 0.3680
vn 0.5267 0.8069 0.2675
vn 0.4098 0.7240 0.5549
vn 0.2952 0.7900 0.5374
vn -0.4101 -0.7238 -0.5549
vn -0.2960 -0.7900 -0.5370
vn -0.4909 -0.6974 -0.5221
vn -0.3894 -0.7846 -0.4824
vn -0.5301 -0.6919 -0.4901
vn -0.4412 -0.7854 -0.4341
vn -0.5572 -0.6986 -0.4488
vn -0.4829 -0.7911 -0.3756
vn -0.5767 -0.7292 -0.3683
vn -0.5263 -0.8068 -0.2685
vn 0.1809 -0.9810 0.0707
vn 0.0059 0.9813 -0.1925
vn -0.1400 0.8410 -0.5226
vn 0.0992 0.9813 -0.1651
vn 0.9961 -0.0000 0.0881
vn -0.0881 -0.0000 0.9961
vn -0.9961 -0.0000 -0.0881
vn 0.0881 -0.0000 -0.9961
vn 0.9622 -0.2588 0.0851
vn -0.9622 0.2588 -0.0851
vn -0.2578 -0.9659 -0.0228
vn 0.2578 0.9659 0.0228
vn 0.9115 0.4033 0.0806
vn -0.9115 -0.4033 -0.0806
vn 0.4018 -0.9151 0.0355
vn -0.4018 0.9151 -0.0355
vn -0.4680 -0.7207 -0.5115
vn 0.2963 0.9469 0.1249
vn -0.2969 -0.9469 -0.1233
vn 0.5727 -0.7817 -0.2468
vn 0.4686 0.7204 0.5114
vn -0.6935 0.6897 -0.2082
vn -0.5731 0.7810 0.2482
vn 0.5135 -0.8547 -0.0758
vn 0.3596 -0.9239 0.1311
vn -0.2288 -0.9241 -0.3062
vn -0.0746 -0.8549 -0.5134
vn 0.3993 0.6892 0.6046
vn 0.4903 0.6688 0.5588
vn 0.4643 0.6571 0.5938
vn -0.2035 0.9469 -0.2488
vn -0.7019 0.6577 -0.2734
vn -0.6761 0.6693 -0.3081
vn 0.2049 -0.9469 0.2478
vn 0.6939 -0.6892 0.2083
vn -0.4639 -0.6577 -0.5934
vn -0.4855 -0.6545 -0.5796
vn -0.1602 -0.8943 -0.4178
vn 0.0728 -0.7810 -0.6203
vn -0.4897 -0.6693 -0.5588
vn 0.0752 0.8547 0.5136
vn 0.1606 0.8942 0.4180
vn 0.4859 0.6541 0.5797
vn 0.2291 0.9239 0.3066
vn -0.0715 0.7817 0.6195
vn -0.3591 0.9241 -0.1309
vn -0.4462 0.8943 -0.0332
vn -0.6948 0.6545 -0.2981
vn -0.5132 0.8549 0.0763
vn -0.6245 0.7207 -0.3010
vn 0.6246 -0.7204 0.3015
vn 0.6763 -0.6688 0.3087
vn 0.6951 -0.6541 0.2984
vn 0.4465 -0.8942 0.0335
vn 0.7023 -0.6571 0.2737
vn -0.3498 -0.7270 -0.5908
vn -0.1911 -0.8132 -0.5497
vn -0.3987 -0.7389 -0.5432
vn -0.2613 -0.8404 -0.4749
vn -0.4284 -0.7623 -0.4851
vn -0.3127 -0.8678 -0.3862
vn -0.0544 -0.7690 -0.6369
vn -0.2386 -0.7241 -0.6470
vn -0.3579 -0.9053 -0.2287
vn -0.4422 -0.8155 -0.3733
vn 0.1917 0.8130 0.5499
vn 0.3502 0.7265 0.5912
vn 0.2616 0.8402 0.4751
vn 0.3990 0.7386 0.5434
vn 0.3131 0.8675 0.3866
vn 0.4290 0.7619 0.4852
vn 0.3575 0.9051 0.2301
vn 0.4424 0.8153 0.3737
vn 0.0556 0.7695 0.6362
vn 0.2391 0.7240 0.6471
vn -0.4599 0.8678 -0.1883
vn -0.5879 0.7623 -0.2706
vn -0.5300 0.8404 -0.1135
vn -0.6350 0.7389 -0.2254
vn -0.5815 0.8132 -0.0248
vn -0.6665 0.7270 -0.1649
vn -0.6883 0.7242 -0.0423
vn -0.6256 0.7690 0.1313
vn -0.4848 0.8155 -0.3160
vn -0.3221 0.9053 -0.2769
vn 0.4852 -0.8153 0.3161
vn 0.3233 -0.9051 0.2761
vn 0.5882 -0.7619 0.2712
vn 0.4604 -0.8675 0.1885
vn 0.6352 -0.7386 0.2257
vn 0.5303 -0.8402 0.1138
vn 0.6670 -0.7265 0.1652
vn 0.5818 -0.8130 0.0253
vn 0.6885 -0.7240 0.0427
vn 0.6253 -0.7695 -0.1299
vn -0.3990 -0.6897 -0.6042
vn -0.0712 -0.9744 0.2133
vn -0.2701 0.9464 -0.1773
vn 0.2709 -0.9460 0.1779
vn 0.3547 -0.8482 -0.3933
vn 0.0714 0.9743 -0.2138
vn -0.6431 0.6605 0.3875
vn -0.3538 0.8482 0.3942
vn 0.4516 -0.8417 -0.2960
vn 0.5374 -0.8307 -0.1450
vn 0.1831 -0.9780 0.1000
vn 0.0803 -0.9960 -0.0395
vn 0.1290 0.9809 -0.1458
vn 0.1352 0.9657 -0.2217
vn 0.1578 0.9679 -0.1956
vn -0.5678 0.8227 0.0273
vn -0.6843 0.6187 0.3860
vn -0.7001 0.6192 0.3556
vn 0.5676 -0.8228 -0.0283
vn 0.6432 -0.6602 -0.3879
vn -0.1571 -0.9681 0.1954
vn -0.1557 -0.9643 0.2144
vn 0.1284 -0.9911 0.0352
vn 0.0218 -0.9861 -0.1647
vn -0.1347 -0.9659 0.2212
vn -0.0800 0.9960 0.0392
vn -0.1282 0.9911 -0.0353
vn 0.1562 0.9641 -0.2146
vn -0.1827 0.9781 -0.1001
vn -0.0223 0.9863 0.1636
vn -0.5372 0.8309 0.1448
vn -0.5011 0.8363 0.2224
vn -0.6980 0.6097 0.3756
vn -0.4512 0.8419 0.2959
vn -0.6843 0.6607 0.3087
vn 0.6846 -0.6603 -0.3087
vn 0.7005 -0.6186 -0.3558
vn 0.6983 -0.6093 -0.3758
vn 0.5013 -0.8362 -0.2225
vn 0.6846 -0.6181 -0.3865
vn -0.0873 -0.9896 0.1143
vn 0.0165 -0.9996 0.0219
vn -0.0639 -0.9854 0.1579
vn 0.0546 -0.9950 0.0830
vn -0.0246 -0.9815 0.1899
vn 0.1031 -0.9856 0.1339
vn -0.0231 -0.9958 -0.0887
vn -0.0960 -0.9950 0.0264
vn 0.1912 -0.9623 0.1937
vn 0.0609 -0.9735 0.2204
vn -0.0162 0.9996 -0.0222
vn 0.0879 0.9895 -0.1145
vn -0.0543 0.9951 -0.0832
vn 0.0643 0.9853 -0.1582
vn -0.1026 0.9856 -0.1340
vn 0.0250 0.9814 -0.1904
vn -0.1905 0.9625 -0.1932
vn -0.0606 0.9735 -0.2205
vn 0.0227 0.9959 0.0877
vn 0.0963 0.9950 -0.0267
vn -0.5864 0.7849 0.2001
vn -0.6584 0.6978 0.2820
vn -0.5589 0.7856 0.2654
vn -0.6419 0.6923 0.3298
vn -0.5180 0.7913 0.3247
vn -0.6124 0.6990 0.3692
vn -0.5434 0.7295 0.4154
vn -0.4318 0.8069 0.4031
vn -0.6618 0.7240 0.1947
vn -0.6061 0.7900 0.0930
vn 0.6619 -0.7238 -0.1950
vn 0.6059 -0.7900 -0.0939
vn 0.6588 -0.6974 -0.2821
vn 0.5867 -0.7846 -0.2004
vn 0.6421 -0.6919 -0.3300
vn 0.5591 -0.7854 -0.2656
vn 0.6127 -0.6986 -0.3696
vn 0.5184 -0.7911 -0.3248
vn 0.5437 -0.7292 -0.4155
vn 0.4326 -0.8068 -0.4024
vn -0.1285 -0.9810 0.1457
vn 0.1788 0.9813 0.0716
vn 0.5389 0.8410 0.0476
vn 0.1210 0.9813 0.1498
vn 0.7066 -0.0000 -0.7076
vn 0.7076 -0.0000 0.7066
vn -0.7066 -0.0000 0.7076
vn -0.7076 -0.0000 -0.7066
vn 0.6638 -0.3425 -0.6648
vn -0.6638 0.3425 0.6648
vn -0.1365 -0.9812 0.1367
vn 0.1365 0.9812 -0.1367
vn 0.6060 0.5143 -0.6069
vn -0.6060 -0.5143 0.6069
vn 0.2178 -0.9513 -0.2181
vn -0.2178 0.9513 0.2181
vn -0.5767 -0.8165 0.0257
vn 0.2153 0.9702 -0.1108
vn -0.2146 -0.9703 0.1119
vn 0.1444 -0.8627 -0.4847
vn 0.5771 0.8163 -0.0261
vn -0.5101 0.7917 0.3361
vn -0.1438 0.8621 0.4859
vn 0.2130 -0.9132 -0.3475
vn 0.2521 -0.9566 -0.1459
vn -0.2904 -0.9568 -0.0159
vn -0.3468 -0.9133 -0.2137
vn 0.6075 0.7913 0.0689
vn 0.6325 0.7744 -0.0150
vn 0.6442 0.7646 0.0212
vn -0.2420 0.9703 -0.0026
vn -0.5642 0.7651 0.3103
vn -0.5701 0.7748 0.2731
vn 0.2421 -0.9702 0.0014
vn 0.5105 -0.7913 -0.3364
vn -0.6436 -0.7651 -0.0213
vn -0.6472 -0.7623 0.0005
vn -0.3265 -0.9386 -0.1119
vn -0.3482 -0.8621 -0.3682
vn -0.6320 -0.7748 0.0146
vn 0.3472 0.9132 0.2134
vn 0.3268 0.9385 0.1118
vn 0.6476 0.7620 -0.0007
vn 0.2908 0.9566 0.0159
vn 0.3482 0.8627 0.3668
vn -0.2517 0.9568 0.1457
vn -0.2404 0.9386 0.2476
vn -0.5773 0.7623 0.2925
vn -0.2125 0.9133 0.3475
vn -0.5259 0.8165 0.2382
vn 0.5264 -0.8163 -0.2380
vn 0.5708 -0.7744 -0.2730
vn 0.5778 -0.7620 -0.2926
vn 0.2408 -0.9385 -0.2476
vn 0.5648 -0.7646 -0.3105
vn -0.5628 -0.8215 -0.0920
vn -0.4354 -0.8850 -0.1648
vn -0.5556 -0.8307 -0.0353
vn -0.4203 -0.9036 -0.0824
vn -0.5292 -0.8484 0.0142
vn -0.3879 -0.9217 -0.0062
vn -0.4269 -0.8533 -0.2992
vn -0.5400 -0.8193 -0.1929
vn -0.3109 -0.9454 0.0981
vn -0.4555 -0.8867 0.0796
vn 0.4358 0.8849 0.1646
vn 0.5633 0.8211 0.0919
vn 0.4207 0.9035 0.0823
vn 0.5560 0.8304 0.0351
vn 0.3883 0.9215 0.0061
vn 0.5297 0.8481 -0.0146
vn 0.3116 0.9452 -0.0972
vn 0.4559 0.8865 -0.0796
vn 0.4270 0.8537 0.2980
vn 0.5403 0.8191 0.1927
vn -0.3430 0.9217 0.1811
vn -0.4783 0.8484 0.2269
vn -0.3375 0.9036 0.2637
vn -0.4794 0.8307 0.2830
vn -0.3136 0.8850 0.3441
vn -0.4602 0.8215 0.3368
vn -0.3941 0.8193 0.4165
vn -0.2452 0.8533 0.4601
vn -0.4422 0.8867 0.1352
vn -0.3216 0.9454 0.0533
vn 0.4425 -0.8865 -0.1354
vn 0.3218 -0.9452 -0.0544
vn 0.4789 -0.8481 -0.2268
vn 0.3435 -0.9215 -0.1813
vn 0.4799 -0.8304 -0.2830
vn 0.3379 -0.9035 -0.2638
vn 0.4607 -0.8211 -0.3370
vn 0.3141 -0.8849 -0.3440
vn 0.3945 -0.8191 -0.4164
vn 0.2458 -0.8537 -0.4591
vn -0.6070 -0.7917 -0.0688
vn 0.0878 -0.9859 0.1424
vn -0.2330 0.9699 0.0704
vn 0.2337 -0.9697 -0.0705
vn -0.0584 -0.9089 -0.4130
vn -0.0879 0.9859 -0.1427
vn -0.0985 0.7674 0.6335
vn 0.0594 0.9089 0.4129
vn 0.0495 -0.9045 -0.4235
vn 0.1853 -0.8971 -0.4010
vn 0.1441 -0.9879 -0.0566
vn 0.0156 -0.9978 -0.0640
vn -0.0215 0.9895 -0.1427
vn -0.0622 0.9810 -0.1836
vn -0.0364 0.9823 -0.1839
vn -0.2735 0.8916 0.3609
vn -0.1241 0.7310 0.6710
vn -0.1531 0.7315 0.6644
vn 0.2727 -0.8917 -0.3612
vn 0.0983 -0.7671 -0.6339
vn 0.0366 -0.9824 0.1833
vn 0.0482 -0.9802 0.1920
vn 0.0807 -0.9952 -0.0560
vn -0.0831 -0.9924 -0.0905
vn 0.0622 -0.9811 0.1831
vn -0.0156 0.9978 0.0637
vn -0.0807 0.9952 0.0558
vn -0.0481 0.9801 -0.1924
vn -0.1440 0.9880 0.0564
vn 0.0822 0.9925 0.0903
vn -0.1854 0.8972 0.4008
vn -0.1195 0.9009 0.4173
vn -0.1392 0.7230 0.6766
vn -0.0494 0.9047 0.4233
vn -0.1727 0.7675 0.6173
vn 0.1729 -0.7672 -0.6176
vn 0.1533 -0.7310 -0.6649
vn 0.1392 -0.7226 -0.6771
vn 0.1195 -0.9008 -0.4175
vn 0.1240 -0.7305 -0.6715
vn 0.0234 -0.9943 0.1036
vn 0.0201 -0.9998 0.0010
vn 0.0593 -0.9920 0.1113
vn 0.0727 -0.9973 0.0084
vn 0.0963 -0.9899 0.1043
vn 0.1249 -0.9922 0.0050
vn -0.0610 -0.9977 -0.0289
vn -0.0305 -0.9973 0.0668
vn 0.2028 -0.9791 -0.0168
vn 0.1549 -0.9854 0.0704
vn -0.0201 0.9998 -0.0013
vn -0.0232 0.9943 -0.1040
vn -0.0727 0.9973 -0.0086
vn -0.0593 0.9920 -0.1116
vn -0.1248 0.9922 -0.0054
vn -0.0964 0.9898 -0.1048
vn -0.2022 0.9792 0.0166
vn -0.1548 0.9854 -0.0707
vn 0.0603 0.9978 0.0286
vn 0.0304 0.9973 -0.0670
vn -0.1804 0.8650 0.4683
vn -0.1732 0.7983 0.5768
vn -0.1254 0.8655 0.4850
vn -0.1339 0.7938 0.5933
vn -0.0672 0.8696 0.4892
vn -0.0922 0.7993 0.5938
vn -0.0248 0.8234 0.5669
vn 0.0258 0.8806 0.4732
vn -0.2288 0.8191 0.5260
vn -0.2566 0.8686 0.4239
vn 0.2288 -0.8190 -0.5263
vn 0.2559 -0.8686 -0.4243
vn 0.1734 -0.7980 -0.5772
vn 0.1803 -0.8648 -0.4687
vn 0.1339 -0.7935 -0.5936
vn 0.1255 -0.8653 -0.4852
vn 0.0921 -0.7989 -0.5943
vn 0.0673 -0.8694 -0.4895
vn 0.0249 -0.8232 -0.5672
vn -0.0250 -0.8806 -0.4733
vn 0.0217 -0.9896 0.1424
vn 0.1257 0.9898 -0.0676
vn 0.1427 0.9898 0.0024
vn 0.3561 0.2182 0.9086
vn 0.7640 0.2182 -0.6072
vt 0.812500 0.375000
vt 0.812500 0.687500
vt 0.750000 0.687500
vt 0.750000 0.375000
vt 0.812500 0.406250
vt 0.750000 0.406250
vt 0.750000 0.656250
vt 0.812500 0.656250
vt 0.812500 0.000000
vt 0.812500 0.343750
vt 0.750000 0.343750
vt 0.750000 0.000000
vt 0.812500 0.031250
vt 0.750000 0.031250
vt 0.750000 0.312500
vt 0.812500 0.312500
vt 0.812500 0.718750
vt 0.812500 0.968750
vt 0.750000 0.968750
vt 0.750000 0.718750
vt 0.812500 0.750000
vt 0.750000 0.750000
vt 0.750000 0.937500
vt 0.812500 0.937500
vt 0.625000 0.883137
vt 0.531003 0.882346
vt 0.537131 1.000000
vt 0.625000 1.000000
vt 0.237703 0.879355
vt 0.239458 1.000000
vt 0.312500 1.000000
vt 0.312500 0.878734
vt 0.386152 0.881127
vt 0.312500 0.880507
vt 0.384395 1.000000
vt 0.237703 0.879355
vt 0.000000 0.881328
vt 0.000000 1.000000
vt 0.088802 1.000000
vt 0.094911 0.880540
vt 0.531003 0.882346
vt 0.537131 1.000000
vt 0.312500 0.880507
vt 0.386152 0.881127
vt 0.384395 1.000000
vt 0.234307 0.796875
vt 0.308852 0.797861
vt 0.308852 0.702139
vt 0.234307 0.703125
vt 0.237703 0.620645
vt 0.312500 0.621266
vt 0.386152 0.881127
vt 0.389616 0.797535
vt 0.316198 0.798520
vt 0.316198 0.701480
vt 0.389616 0.702465
vt 0.386152 0.618873
vt 0.312500 0.619493
vt 0.000000 0.500000
vt 0.000000 0.618672
vt 0.094911 0.619460
vt 0.088802 0.500000
vt 0.094911 0.880540
vt 0.095518 0.795038
vt 0.000008 0.793775
vt 0.000008 0.706226
vt 0.095518 0.704962
vt 0.094911 0.619460
vt 0.312500 0.500000
vt 0.384395 0.500000
vt 0.386152 0.618873
vt 0.530352 0.795647
vt 0.624992 0.794378
vt 0.624992 0.705622
vt 0.530352 0.704353
vt 0.531003 0.617654
vt 0.625000 0.616863
vt 0.237703 0.620645
vt 0.239458 0.500000
vt 0.094911 0.880541
vt 0.088802 1.000000
vt 0.000000 0.881328
vt 0.530352 0.704353
vt 0.624992 0.705623
vt 0.389616 0.797535
vt 0.384395 0.500000
vt 0.234307 0.703125
vt 0.308852 0.702139
vt 0.312500 0.621266
vt 0.237703 0.620645
vt 0.234307 0.796875
vt 0.308852 0.797861
vt 0.234307 0.703125
vt 0.095518 0.704962
vt 0.237703 0.879355
vt 0.234307 0.796875
vt 0.239458 0.500000
vt 0.389616 0.702465
vt 0.316198 0.701480
vt 0.389616 0.797535
vt 0.389616 0.702465
vt 0.389616 0.797535
vt 0.537131 0.500000
vt 0.625000 0.500000
vt 0.088802 0.500000
vt 0.094911 0.619459
vt 0.095518 0.704962
vt 0.000008 0.706226
vt 0.094911 0.619460
vt 0.095518 0.795038
vt 0.000008 0.793775
vt 0.234307 0.703125
vt 0.094911 0.880541
vt 0.468750 0.616895
vt 0.470583 0.702973
vt 0.470583 0.797027
vt 0.468750 0.883105
vt 0.468750 0.500000
vt 0.531003 0.617654
vt 0.537131 0.500000
vt 0.468750 1.000000
vt 0.156250 0.618709
vt 0.154442 0.703613
vt 0.154442 0.796387
vt 0.156250 0.881292
vt 0.156250 1.000000
vt 0.156250 0.500000
vt 0.468750 0.616895
vt 0.156250 0.618709
vt 0.154442 0.703613
vt 0.156250 0.881291
vt 0.437500 0.156250
vt 0.625000 0.156250
vt 0.625000 0.343750
vt 0.437500 0.343750
vt 0.656250 0.718750
vt 0.656250 0.968750
vt 0.718750 0.968750
vt 0.718750 0.718750
vt 0.656250 0.031250
vt 0.656250 0.343750
vt 0.718750 0.343750
vt 0.718750 0.031250
vt 0.656250 0.375000
vt 0.656250 0.687500
vt 0.718750 0.687500
vt 0.718750 0.375000
vt 0.718750 0.000000
vt 0.656250 0.000000
s 0
f 1/1/1 2/2/1 4/3/1 3/4/1
f 3/1/2 4/2/2 8/3/2 7/4/2
f 7/1/3 8/2/3 6/3/3 5/4/3
f 5/1/4 6/2/4 2/3/4 1/4/4
f 3/4/5 7/1/5 5/5/5 1/6/5
f 8/7/6 4/8/6 2/2/6 6/3/6
f 9/9/7 10/10/7 12/11/7 11/12/7
f 11/13/2 12/10/2 16/11/2 15/14/2
f 15/9/8 16/10/8 14/11/8 13/12/8
f 13/9/4 14/10/4 10/11/4 9/12/4
f 11/12/9 15/9/9 13/9/9 9/12/9
f 16/15/10 12/16/10 10/10/10 14/11/10
f 17/17/11 18/18/11 20/19/11 19/20/11
f 19/17/2 20/18/2 24/19/2 23/20/2
f 23/17/12 24/18/12 22/19/12 21/20/12
f 21/17/4 22/18/4 18/19/4 17/20/4
f 19/20/13 23/17/13 21/21/13 17/22/13
f 24/23/14 20/24/14 18/18/14 22/19/14
f 54/25/15 80/26/15 76/27/15 38/28/15
f 98/29/16 94/30/16 26/31/16 58/32/16
f 79/33/17 49/34/17 34/31/17 77/35/17
f 41/32/18 28/31/18 131/30/18 133/36/18
f 61/37/19 30/38/19 95/39/19 97/40/19
f 115/41/20 69/25/20 40/28/20 113/42/20
f 66/43/21 116/44/21 112/45/21 36/31/21
f 41/32/22 133/29/22 136/46/22 43/47/22
f 44/48/23 139/49/23 142/50/23 42/51/23
f 49/34/24 79/52/24 82/53/24 51/54/24
f 52/55/25 85/56/25 89/57/25 50/58/25
f 29/59/26 62/60/26 107/61/26 91/62/26
f 61/37/27 97/63/27 100/64/27 63/65/27
f 64/66/28 103/67/28 107/68/28 62/60/28
f 35/69/29 110/70/29 124/71/29 65/58/29
f 69/25/30 115/41/30 118/72/30 71/73/30
f 72/74/31 121/75/31 125/76/31 70/77/31
f 27/69/32 42/51/32 142/78/32 127/79/32
f 134/80/33 130/81/33 32/38/33 46/82/33
f 86/83/34 55/84/34 53/77/34 88/76/34
f 83/72/35 56/73/35 55/84/35 86/83/35
f 51/54/36 82/85/36 85/56/36 52/55/36
f 73/86/37 33/69/37 50/58/37 89/71/37
f 80/41/38 54/25/38 56/73/38 83/72/38
f 104/87/39 59/88/39 57/89/39 106/90/39
f 101/91/40 60/92/40 59/88/40 104/93/40
f 63/65/41 100/64/41 103/94/41 64/66/41
f 98/95/42 58/32/42 60/92/42 101/96/42
f 92/97/43 106/90/43 57/89/43 25/69/43
f 122/98/44 67/99/44 65/58/44 124/71/44
f 119/100/45 68/54/45 67/99/45 122/101/45
f 71/73/46 118/72/46 121/75/46 72/74/46
f 116/52/47 66/43/47 68/54/47 119/102/47
f 109/103/48 39/104/48 70/77/48 125/76/48
f 128/105/49 143/106/49 45/60/49 31/59/49
f 140/107/50 47/108/50 45/60/50 143/109/50
f 137/110/51 48/111/51 47/108/51 140/107/51
f 43/47/52 136/46/52 139/112/52 44/48/52
f 134/113/53 46/82/53 48/111/53 137/110/53
f 86/83/54 88/76/54 90/114/54 87/115/54
f 87/115/55 90/114/55 89/57/55 85/56/55
f 83/72/56 86/83/56 87/115/56 84/116/56
f 84/116/57 87/115/57 85/56/57 82/85/57
f 80/41/58 83/72/58 84/116/58 81/117/58
f 81/117/59 84/116/59 82/53/59 79/52/59
f 73/86/60 89/71/60 90/114/60 75/118/60
f 75/118/61 90/114/61 88/119/61 74/120/61
f 79/33/62 77/35/62 78/121/62 81/117/62
f 81/117/63 78/121/63 76/27/63 80/26/63
f 104/87/64 106/90/64 108/122/64 105/123/64
f 105/123/65 108/122/65 107/68/65 103/67/65
f 101/91/66 104/93/66 105/123/66 102/124/66
f 102/124/67 105/123/67 103/94/67 100/64/67
f 98/95/68 101/96/68 102/124/68 99/125/68
f 99/125/69 102/124/69 100/64/69 97/63/69
f 94/30/70 98/29/70 99/125/70 96/126/70
f 96/126/71 99/125/71 97/40/71 95/39/71
f 106/90/72 92/97/72 93/127/72 108/122/72
f 108/122/73 93/127/73 91/62/73 107/61/73
f 122/98/74 124/71/74 126/128/74 123/115/74
f 123/115/75 126/128/75 125/76/75 121/75/75
f 119/100/76 122/101/76 123/115/76 120/116/76
f 120/116/77 123/115/77 121/75/77 118/72/77
f 116/52/78 119/102/78 120/116/78 117/117/78
f 117/117/79 120/116/79 118/72/79 115/41/79
f 115/41/80 113/42/80 114/121/80 117/117/80
f 117/117/81 114/121/81 112/45/81 116/44/81
f 109/103/82 125/76/82 126/128/82 111/118/82
f 111/118/83 126/128/83 124/71/83 110/70/83
f 143/106/84 128/105/84 129/127/84 144/129/84
f 144/129/85 129/127/85 127/79/85 142/78/85
f 140/107/86 143/109/86 144/129/86 141/130/86
f 141/130/87 144/129/87 142/50/87 139/49/87
f 137/110/88 140/107/88 141/130/88 138/124/88
f 138/124/89 141/130/89 139/112/89 136/46/89
f 134/113/90 137/110/90 138/124/90 135/131/90
f 135/131/91 138/124/91 136/46/91 133/29/91
f 130/81/92 134/80/92 135/131/92 132/126/92
f 132/126/93 135/131/93 133/36/93 131/30/93
f 37/104/94 74/120/94 88/119/94 53/77/94
f 174/25/95 200/26/95 196/27/95 158/28/95
f 218/29/96 214/30/96 146/31/96 178/32/96
f 199/33/97 169/34/97 154/31/97 197/35/97
f 161/32/98 148/31/98 251/30/98 253/36/98
f 181/37/99 150/38/99 215/39/99 217/40/99
f 235/41/100 189/25/100 160/28/100 233/42/100
f 186/43/101 236/44/101 232/45/101 156/31/101
f 161/32/102 253/29/102 256/46/102 163/47/102
f 164/48/103 259/49/103 262/50/103 162/51/103
f 169/34/104 199/52/104 202/53/104 171/54/104
f 172/55/105 205/56/105 209/57/105 170/58/105
f 149/59/106 182/60/106 227/61/106 211/62/106
f 181/37/107 217/63/107 220/64/107 183/65/107
f 184/66/108 223/67/108 227/68/108 182/60/108
f 155/69/109 230/70/109 244/71/109 185/58/109
f 189/25/110 235/41/110 238/72/110 191/73/110
f 192/74/111 241/75/111 245/76/111 190/77/111
f 147/69/112 162/51/112 262/78/112 247/79/112
f 254/80/113 250/81/113 152/38/113 166/82/113
f 206/83/114 175/84/114 173/77/114 208/76/114
f 203/72/115 176/73/115 175/84/115 206/83/115
f 171/54/116 202/85/116 205/56/116 172/55/116
f 193/86/117 153/69/117 170/58/117 209/71/117
f 200/41/118 174/25/118 176/73/118 203/72/118
f 224/87/119 179/88/119 177/89/119 226/90/119
f 221/91/120 180/92/120 179/88/120 224/93/120
f 183/65/121 220/64/121 223/94/121 184/66/121
f 218/95/122 178/32/122 180/92/122 221/96/122
f 212/97/123 226/90/123 177/89/123 145/69/123
f 242/98/124 187/99/124 185/58/124 244/71/124
f 239/100/125 188/54/125 187/99/125 242/101/125
f 191/73/126 238/72/126 241/75/126 192/74/126
f 236/52/127 186/43/127 188/54/127 239/102/127
f 229/103/128 159/104/128 190/77/128 245/76/128
f 248/105/129 263/106/129 165/60/129 151/59/129
f 260/107/130 167/108/130 165/60/130 263/109/130
f 257/110/131 168/111/131 167/108/131 260/107/131
f 163/47/132 256/46/132 259/112/132 164/48/132
f 254/113/133 166/82/133 168/111/133 257/110/133
f 206/83/134 208/76/134 210/114/134 207/115/134
f 207/115/135 210/114/135 209/57/135 205/56/135
f 203/72/136 206/83/136 207/115/136 204/116/136
f 204/116/137 207/115/137 205/56/137 202/85/137
f 200/41/138 203/72/138 204/116/138 201/117/138
f 201/117/139 204/116/139 202/53/139 199/52/139
f 193/86/140 209/71/140 210/114/140 195/118/140
f 195/118/141 210/114/141 208/119/141 194/120/141
f 199/33/142 197/35/142 198/121/142 201/117/142
f 201/117/143 198/121/143 196/27/143 200/26/143
f 224/87/144 226/90/144 228/122/144 225/123/144
f 225/123/145 228/122/145 227/68/145 223/67/145
f 221/91/146 224/93/146 225/123/146 222/124/146
f 222/124/147 225/123/147 223/94/147 220/64/147
f 218/95/148 221/96/148 222/124/148 219/125/148
f 219/125/149 222/124/149 220/64/149 217/63/149
f 214/30/150 218/29/150 219/125/150 216/126/150
f 216/126/151 219/125/151 217/40/151 215/39/151
f 226/90/152 212/97/152 213/127/152 228/122/152
f 228/122/153 213/127/153 211/62/153 227/61/153
f 242/98/154 244/71/154 246/128/154 243/115/154
f 243/115/155 246/128/155 245/76/155 241/75/155
f 239/100/156 242/101/156 243/115/156 240/116/156
f 240/116/157 243/115/157 241/75/157 238/72/157
f 236/52/158 239/102/158 240/116/158 237/117/158
f 237/117/159 240/116/159 238/72/159 235/41/159
f 235/41/160 233/42/160 234/121/160 237/117/160
f 237/117/161 234/121/161 232/45/161 236/44/161
f 229/103/162 245/76/162 246/128/162 231/118/162
f 231/118/163 246/128/163 244/71/163 230/70/163
f 263/106/164 248/105/164 249/127/164 264/129/164
f 264/129/165 249/127/165 247/79/165 262/78/165
f 260/107/166 263/109/166 264/129/166 261/130/166
f 261/130/167 264/129/167 262/50/167 259/49/167
f 257/110/168 260/107/168 261/130/168 258/124/168
f 258/124/169 261/130/169 259/112/169 256/46/169
f 254/113/170 257/110/170 258/124/170 255/131/170
f 255/131/171 258/124/171 256/46/171 253/29/171
f 250/81/172 254/80/172 255/131/172 252/126/172
f 252/126/173 255/131/173 253/36/173 251/30/173
f 157/104/174 194/120/174 208/119/174 173/77/174
f 268/132/175 266/133/175 265/134/175 267/135/175
f 272/136/2 271/137/2 269/138/2 270/139/2
f 276/140/2 275/141/2 273/142/2 274/143/2
f 277/1/176 278/2/176 280/3/176 279/4/176
f 279/1/177 280/2/177 284/3/177 283/4/177
f 283/1/178 284/2/178 282/3/178 281/4/178
f 281/1/179 282/2/179 278/3/179 277/4/179
f 279/4/5 283/1/5 281/5/5 277/6/5
f 284/7/6 280/8/6 278/2/6 282/3/6
f 285/9/180 286/10/180 288/11/180 287/12/180
f 287/13/177 288/10/177 292/11/177 291/14/177
f 291/9/181 292/10/181 290/11/181 289/12/181
f 289/9/179 290/10/179 286/11/179 285/12/179
f 287/12/182 291/9/182 289/9/182 285/12/182
f 292/15/183 288/16/183 286/10/183 290/11/183
f 293/17/184 294/18/184 296/19/184 295/20/184
f 295/17/177 296/18/177 300/19/177 299/20/177
f 299/17/185 300/18/185 298/19/185 297/20/185
f 297/17/179 298/18/179 294/19/179 293/20/179
f 295/20/186 299/17/186 297/21/186 293/22/186
f 300/23/187 296/24/187 294/18/187 298/19/187
f 330/25/188 356/26/188 352/27/188 314/28/188
f 374/29/189 370/30/189 302/31/189 334/32/189
f 355/33/190 325/34/190 310/31/190 353/35/190
f 317/32/191 304/31/191 407/30/191 409/36/191
f 337/37/192 306/38/192 371/39/192 373/40/192
f 391/41/193 345/25/193 316/28/193 389/42/193
f 342/43/194 392/44/194 388/45/194 312/31/194
f 317/32/195 409/29/195 412/46/195 319/47/195
f 320/48/196 415/49/196 418/50/196 318/51/196
f 325/34/197 355/52/197 358/53/197 327/54/197
f 328/55/198 361/56/198 365/57/198 326/58/198
f 305/59/199 338/60/199 383/61/199 367/62/199
f 337/37/200 373/63/200 376/64/200 339/65/200
f 340/66/201 379/67/201 383/68/201 338/60/201
f 311/69/202 386/70/202 400/71/202 341/58/202
f 345/25/203 391/41/203 394/72/203 347/73/203
f 348/74/204 397/75/204 401/76/204 346/77/204
f 303/69/205 318/51/205 418/78/205 403/79/205
f 410/80/206 406/81/206 308/38/206 322/82/206
f 362/83/207 331/84/207 329/77/207 364/76/207
f 359/72/208 332/73/208 331/84/208 362/83/208
f 327/54/209 358/85/209 361/56/209 328/55/209
f 349/86/210 309/69/210 326/58/210 365/71/210
f 356/41/211 330/25/211 332/73/211 359/72/211
f 380/87/212 335/88/212 333/89/212 382/90/212
f 377/91/213 336/92/213 335/88/213 380/93/213
f 339/65/214 376/64/214 379/94/214 340/66/214
f 374/95/215 334/32/215 336/92/215 377/96/215
f 368/97/216 382/90/216 333/89/216 301/69/216
f 398/98/217 343/99/217 341/58/217 400/71/217
f 395/100/218 344/54/218 343/99/218 398/101/218
f 347/73/219 394/72/219 397/75/219 348/74/219
f 392/52/220 342/43/220 344/54/220 395/102/220
f 385/103/221 315/104/221 346/77/221 401/76/221
f 404/105/222 419/106/222 321/60/222 307/59/222
f 416/107/223 323/108/223 321/60/223 419/109/223
f 413/110/224 324/111/224 323/108/224 416/107/224
f 319/47/225 412/46/225 415/112/225 320/48/225
f 410/113/226 322/82/226 324/111/226 413/110/226
f 362/83/227 364/76/227 366/114/227 363/115/227
f 363/115/228 366/114/228 365/57/228 361/56/228
f 359/72/229 362/83/229 363/115/229 360/116/229
f 360/116/230 363/115/230 361/56/230 358/85/230
f 356/41/231 359/72/231 360/116/231 357/117/231
f 357/117/232 360/116/232 358/53/232 355/52/232
f 349/86/233 365/71/233 366/114/233 351/118/233
f 351/118/234 366/114/234 364/119/234 350/120/234
f 355/33/235 353/35/235 354/121/235 357/117/235
f 357/117/236 354/121/236 352/27/236 356/26/236
f 380/87/237 382/90/237 384/122/237 381/123/237
f 381/123/238 384/122/238 383/68/238 379/67/238
f 377/91/239 380/93/239 381/123/239 378/124/239
f 378/124/240 381/123/240 379/94/240 376/64/240
f 374/95/241 377/96/241 378/124/241 375/125/241
f 375/125/242 378/124/242 376/64/242 373/63/242
f 370/30/243 374/29/243 375/125/243 372/126/243
f 372/126/244 375/125/244 373/40/244 371/39/244
f 382/90/245 368/97/245 369/127/245 384/122/245
f 384/122/246 369/127/246 367/62/246 383/61/246
f 398/98/247 400/71/247 402/128/247 399/115/247
f 399/115/248 402/128/248 401/76/248 397/75/248
f 395/100/249 398/101/249 399/115/249 396/116/249
f 396/116/250 399/115/250 397/75/250 394/72/250
f 392/52/251 395/102/251 396/116/251 393/117/251
f 393/117/252 396/116/252 394/72/252 391/41/252
f 391/41/253 389/42/253 390/121/253 393/117/253
f 393/117/254 390/121/254 388/45/254 392/44/254
f 385/103/255 401/76/255 402/128/255 387/118/255
f 387/118/256 402/128/256 400/71/256 386/70/256
f 419/106/257 404/105/257 405/127/257 420/129/257
f 420/129/258 405/127/258 403/79/258 418/78/258
f 416/107/259 419/109/259 420/129/259 417/130/259
f 417/130/260 420/129/260 418/50/260 415/49/260
f 413/110/261 416/107/261 417/130/261 414/124/261
f 414/124/262 417/130/262 415/112/262 412/46/262
f 410/113/263 413/110/263 414/124/263 411/131/263
f 411/131/264 414/124/264 412/46/264 409/29/264
f 406/81/265 410/80/265 411/131/265 408/126/265
f 408/126/266 411/131/266 409/36/266 407/30/266
f 313/104/267 350/120/267 364/119/267 329/77/267
f 450/25/268 476/26/268 472/27/268 434/28/268
f 494/29/269 490/30/269 422/31/269 454/32/269
f 475/33/270 445/34/270 430/31/270 473/35/270
f 437/32/271 424/31/271 527/30/271 529/36/271
f 457/37/272 426/38/272 491/39/272 493/40/272
f 511/41/273 465/25/273 436/28/273 509/42/273
f 462/43/274 512/44/274 508/45/274 432/31/274
f 437/32/275 529/29/275 532/46/275 439/47/275
f 440/48/276 535/49/276 538/50/276 438/51/276
f 445/34/277 475/52/277 478/53/277 447/54/277
f 448/55/278 481/56/278 485/57/278 446/58/278
f 425/59/279 458/60/279 503/61/279 487/62/279
f 457/37/280 493/63/280 496/64/280 459/65/280
f 460/66/281 499/67/281 503/68/281 458/60/281
f 431/69/282 506/70/282 520/71/282 461/58/282
f 465/25/283 511/41/283 514/72/283 467/73/283
f 468/74/284 517/75/284 521/76/284 466/77/284
f 423/69/285 438/51/285 538/78/285 523/79/285
f 530/80/286 526/81/286 428/38/286 442/82/286
f 482/83/287 451/84/287 449/77/287 484/76/287
f 479/72/288 452/73/288 451/84/288 482/83/288
f 447/54/289 478/85/289 481/56/289 448/55/289
f 469/86/290 429/69/290 446/58/290 485/71/290
f 476/41/291 450/25/291 452/73/291 479/72/291
f 500/87/292 455/88/292 453/89/292 502/90/292
f 497/91/293 456/92/293 455/88/293 500/93/293
f 459/65/294 496/64/294 499/94/294 460/66/294
f 494/95/295 454/32/295 456/92/295 497/96/295
f 488/97/296 502/90/296 453/89/296 421/69/296
f 518/98/297 463/99/297 461/58/297 520/71/297
f 515/100/298 464/54/298 463/99/298 518/101/298
f 467/73/299 514/72/299 517/75/299 468/74/299
f 512/52/300 462/43/300 464/54/300 515/102/300
f 505/103/301 435/104/301 466/77/301 521/76/301
f 524/105/302 539/106/302 441/60/302 427/59/302
f 536/107/303 443/108/303 441/60/303 539/109/303
f 533/110/304 444/111/304 443/108/304 536/107/304
f 439/47/305 532/46/305 535/112/305 440/48/305
f 530/113/306 442/82/306 444/111/306 533/110/306
f 482/83/307 484/76/307 486/114/307 483/115/307
f 483/115/308 486/114/308 485/57/308 481/56/308
f 479/72/309 482/83/309 483/115/309 480/116/309
f 480/116/310 483/115/310 481/56/310 478/85/310
f 476/41/311 479/72/311 480/116/311 477/117/311
f 477/117/312 480/116/312 478/53/312 475/52/312
f 469/86/313 485/71/313 486/114/313 471/118/313
f 471/118/314 486/114/314 484/119/314 470/120/314
f 475/33/315 473/35/315 474/121/315 477/117/315
f 477/117/316 474/121/316 472/27/316 476/26/316
f 500/87/317 502/90/317 504/122/317 501/123/317
f 501/123/318 504/122/318 503/68/318 499/67/318
f 497/91/319 500/93/319 501/123/319 498/124/319
f 498/124/320 501/123/320 499/94/320 496/64/320
f 494/95/321 497/96/321 498/124/321 495/125/321
f 495/125/322 498/124/322 496/64/322 493/63/322
f 490/30/323 494/29/323 495/125/323 492/126/323
f 492/126/324 495/125/324 493/40/324 491/39/324
f 502/90/325 488/97/325 489/127/325 504/122/325
f 504/122/326 489/127/326 487/62/326 503/61/326
f 518/98/327 520/71/327 522/128/327 519/115/327
f 519/115/328 522/128/328 521/76/328 517/75/328
f 515/100/329 518/101/329 519/115/329 516/116/329
f 516/116/330 519/115/330 517/75/330 514/72/330
f 512/52/331 515/102/331 516/116/331 513/117/331
f 513/117/332 516/116/332 514/72/332 511/41/332
f 511/41/333 509/42/333 510/121/333 513/117/333
f 513/117/334 510/121/334 508/45/334 512/44/334
f 505/103/335 521/76/335 522/128/335 507/118/335
f 507/118/336 522/128/336 520/71/336 506/70/336
f 539/106/337 524/105/337 525/127/337 540/129/337
f 540/129/338 525/127/338 523/79/338 538/78/338
f 536/107/339 539/109/339 540/129/339 537/130/339
f 537/130/340 540/129/340 538/50/340 535/49/340
f 533/110/341 536/107/341 537/130/341 534/124/341
f 534/124/342 537/130/342 535/112/342 532/46/342
f 530/113/343 533/110/343 534/124/343 531/131/343
f 531/131/344 534/124/344 532/46/344 529/29/344
f 526/81/345 530/80/345 531/131/345 528/126/345
f 528/126/346 531/131/346 529/36/346 527/30/346
f 433/104/347 470/120/347 484/119/347 449/77/347
f 544/132/348 542/133/348 541/134/348 543/135/348
f 548/132/349 546/133/349 545/134/349 547/135/349
f 552/132/350 550/133/350 549/134/350 551/135/350
f 553/1/351 554/2/351 556/3/351 555/4/351
f 555/1/352 556/2/352 560/3/352 559/4/352
f 559/1/353 560/2/353 558/3/353 557/4/353
f 557/1/354 558/2/354 554/3/354 553/4/354
f 555/4/5 559/1/5 557/5/5 553/6/5
f 560/7/6 556/8/6 554/2/6 558/3/6
f 561/9/355 562/10/355 564/11/355 563/12/355
f 563/13/352 564/10/352 568/11/352 567/14/352
f 567/9/356 568/10/356 566/11/356 565/12/356
f 565/9/354 566/10/354 562/11/354 561/12/354
f 563/12/357 567/9/357 565/9/357 561/12/357
f 568/15/358 564/16/358 562/10/358 566/11/358
f 569/17/359 570/18/359 572/19/359 571/20/359
f 571/17/352 572/18/352 576/19/352 575/20/352
f 575/17/360 576/18/360 574/19/360 573/20/360
f 573/17/354 574/18/354 570/19/354 569/20/354
f 571/20/361 575/17/361 573/21/361 569/22/361
f 576/23/362 572/24/362 570/18/362 574/19/362
f 606/25/363 632/26/363 628/27/363 590/28/363
f 650/29/364 646/30/364 578/31/364 610/32/364
f 631/33/365 601/34/365 586/31/365 629/35/365
f 593/32/366 580/31/366 683/30/366 685/36/366
f 613/37/367 582/38/367 647/39/367 649/40/367
f 667/41/368 621/25/368 592/28/368 665/42/368
f 618/43/369 668/44/369 664/45/369 588/31/369
f 593/32/370 685/29/370 688/46/370 595/47/370
f 596/48/371 691/49/371 694/50/371 594/51/371
f 601/34/372 631/52/372 634/53/372 603/54/372
f 604/55/373 637/56/373 641/57/373 602/58/373
f 581/59/374 614/60/374 659/61/374 643/62/374
f 613/37/375 649/63/375 652/64/375 615/65/375
f 616/66/376 655/67/376 659/68/376 614/60/376
f 587/69/377 662/70/377 676/71/377 617/58/377
f 621/25/378 667/41/378 670/72/378 623/73/378
f 624/74/379 673/75/379 677/76/379 622/77/379
f 579/69/380 594/51/380 694/78/380 679/79/380
f 686/80/381 682/81/381 584/38/381 598/82/381
f 638/83/382 607/84/382 605/77/382 640/76/382
f 635/72/383 608/73/383 607/84/383 638/83/383
f 603/54/384 634/85/384 637/56/384 604/55/384
f 625/86/385 585/69/385 602/58/385 641/71/385
f 632/41/386 606/25/386 608/73/386 635/72/386
f 656/87/387 611/88/387 609/89/387 658/90/387
f 653/91/388 612/92/388 611/88/388 656/93/388
f 615/65/389 652/64/389 655/94/389 616/66/389
f 650/95/390 610/32/390 612/92/390 653/96/390
f 644/97/391 658/90/391 609/89/391 577/69/391
f 674/98/392 619/99/392 617/58/392 676/71/392
f 671/100/393 620/54/393 619/99/393 674/101/393
f 623/73/394 670/72/394 673/75/394 624/74/394
f 668/52/395 618/43/395 620/54/395 671/102/395
f 661/103/396 591/104/396 622/77/396 677/76/396
f 680/105/397 695/106/397 597/60/397 583/59/397
f 692/107/398 599/108/398 597/60/398 695/109/398
f 689/110/399 600/111/399 599/108/399 692/107/399
f 595/47/400 688/46/400 691/112/400 596/48/400
f 686/113/401 598/82/401 600/111/401 689/110/401
f 638/83/402 640/76/402 642/114/402 639/115/402
f 639/115/403 642/114/403 641/57/403 637/56/403
f 635/72/404 638/83/404 639/115/404 636/116/404
f 636/116/405 639/115/405 637/56/405 634/85/405
f 632/41/406 635/72/406 636/116/406 633/117/406
f 633/117/407 636/116/407 634/53/407 631/52/407
f 625/86/408 641/71/408 642/114/408 627/118/408
f 627/118/409 642/114/409 640/119/409 626/120/409
f 631/33/410 629/35/410 630/121/410 633/117/410
f 633/117/411 630/121/411 628/27/411 632/26/411
f 656/87/412 658/90/412 660/122/412 657/123/412
f 657/123/413 660/122/413 659/68/413 655/67/413
f 653/91/414 656/93/414 657/123/414 654/124/414
f 654/124/415 657/123/415 655/94/415 652/64/415
f 650/95/416 653/96/416 654/124/416 651/125/416
f 651/125/417 654/124/417 652/64/417 649/63/417
f 646/30/418 650/29/418 651/125/418 648/126/418
f 648/126/419 651/125/419 649/40/419 647/39/419
f 658/90/420 644/97/420 645/127/420 660/122/420
f 660/122/421 645/127/421 643/62/421 659/61/421
f 674/98/422 676/71/422 678/128/422 675/115/422
f 675/115/423 678/128/423 677/76/423 673/75/423
f 671/100/424 674/101/424 675/115/424 672/116/424
f 672/116/425 675/115/425 673/75/425 670/72/425
f 668/52/426 671/102/426 672/116/426 669/117/426
f 669/117/427 672/116/427 670/72/427 667/41/427
f 667/41/428 665/42/428 666/121/428 669/117/428
f 669/117/429 666/121/429 664/45/429 668/44/429
f 661/103/430 677/76/430 678/128/430 663/118/430
f 663/118/431 678/128/431 676/71/431 662/70/431
f 695/106/432 680/105/432 681/127/432 696/129/432
f 696/129/433 681/127/433 679/79/433 694/78/433
f 692/107/434 695/109/434 696/129/434 693/130/434
f 693/130/435 696/129/435 694/50/435 691/49/435
f 689/110/436 692/107/436 693/130/436 690/124/436
f 690/124/437 693/130/437 691/112/437 688/46/437
f 686/113/438 689/110/438 690/124/438 687/131/438
f 687/131/439 690/124/439 688/46/439 685/29/439
f 682/81/440 686/80/440 687/131/440 684/126/440
f 684/126/441 687/131/441 685/36/441 683/30/441
f 589/104/442 626/120/442 640/119/442 605/77/442
f 726/25/443 752/26/443 748/27/443 710/28/443
f 770/29/444 766/30/444 698/31/444 730/32/444
f 751/33/445 721/34/445 706/31/445 749/35/445
f 713/32/446 700/31/446 803/30/446 805/36/446
f 733/37/447 702/38/447 767/39/447 769/40/447
f 787/41/448 741/25/448 712/28/448 785/42/448
f 738/43/449 788/44/449 784/45/449 708/31/449
f 713/32/450 805/29/450 808/46/450 715/47/450
f 716/48/451 811/49/451 814/50/451 714/51/451
f 721/34/452 751/52/452 754/53/452 723/54/452
f 724/55/453 757/56/453 761/57/453 722/58/453
f 701/59/454 734/60/454 779/61/454 763/62/454
f 733/37/455 769/63/455 772/64/455 735/65/455
f 736/66/456 775/67/456 779/68/456 734/60/456
f 707/69/457 782/70/457 796/71/457 737/58/457
f 741/25/458 787/41/458 790/72/458 743/73/458
f 744/74/459 793/75/459 797/76/459 742/77/459
f 699/69/460 714/51/460 814/78/460 799/79/460
f 806/80/461 802/81/461 704/38/461 718/82/461
f 758/83/462 727/84/462 725/77/462 760/76/462
f 755/72/463 728/73/463 727/84/463 758/83/463
f 723/54/464 754/85/464 757/56/464 724/55/464
f 745/86/465 705/69/465 722/58/465 761/71/465
f 752/41/466 726/25/466 728/73/466 755/72/466
f 776/87/467 731/88/467 729/89/467 778/90/467
f 773/91/468 732/92/468 731/88/468 776/93/468
f 735/65/469 772/64/469 775/94/469 736/66/469
f 770/95/470 730/32/470 732/92/470 773/96/470
f 764/97/471 778/90/471 729/89/471 697/69/471
f 794/98/472 739/99/472 737/58/472 796/71/472
f 791/100/473 740/54/473 739/99/473 794/101/473
f 743/73/474 790/72/474 793/75/474 744/74/474
f 788/52/475 738/43/475 740/54/475 791/102/475
f 781/103/476 711/104/476 742/77/476 797/76/476
f 800/105/477 815/106/477 717/60/477 703/59/477
f 812/107/478 719/108/478 717/60/478 815/109/478
f 809/110/479 720/111/479 719/108/479 812/107/479
f 715/47/480 808/46/480 811/112/480 716/48/480
f 806/113/481 718/82/481 720/111/481 809/110/481
f 758/83/482 760/76/482 762/114/482 759/115/482
f 759/115/483 762/114/483 761/57/483 757/56/483
f 755/72/484 758/83/484 759/115/484 756/116/484
f 756/116/485 759/115/485 757/56/485 754/85/485
f 752/41/486 755/72/486 756/116/486 753/117/486
f 753/117/487 756/116/487 754/53/487 751/52/487
f 745/86/488 761/71/488 762/114/488 747/118/488
f 747/118/489 762/114/489 760/119/489 746/120/489
f 751/33/490 749/35/490 750/121/490 753/117/490
f 753/117/491 750/121/491 748/27/491 752/26/491
f 776/87/492 778/90/492 780/122/492 777/123/492
f 777/123/493 780/122/493 779/68/493 775/67/493
f 773/91/494 776/93/494 777/123/494 774/124/494
f 774/124/495 777/123/495 775/94/495 772/64/495
f 770/95/496 773/96/496 774/124/496 771/125/496
f 771/125/497 774/124/497 772/64/497 769/63/497
f 766/30/498 770/29/498 771/125/498 768/126/498
f 768/126/499 771/125/499 769/40/499 767/39/499
f 778/90/500 764/97/500 765/127/500 780/122/500
f 780/122/501 765/127/501 763/62/501 779/61/501
f 794/98/502 796/71/502 798/128/502 795/115/502
f 795/115/503 798/128/503 797/76/503 793/75/503
f 791/100/504 794/101/504 795/115/504 792/116/504
f 792/116/505 795/115/505 793/75/505 790/72/505
f 788/52/506 791/102/506 792/116/506 789/117/506
f 789/117/507 792/116/507 790/72/507 787/41/507
f 787/41/508 785/42/508 786/121/508 789/117/508
f 789/117/509 786/121/509 784/45/509 788/44/509
f 781/103/510 797/76/510 798/128/510 783/118/510
f 783/118/511 798/128/511 796/71/511 782/70/511
f 815/106/512 800/105/512 801/127/512 816/129/512
f 816/129/513 801/127/513 799/79/513 814/78/513
f 812/107/514 815/109/514 816/129/514 813/130/514
f 813/130/515 816/129/515 814/50/515 811/49/515
f 809/110/516 812/107/516 813/130/516 810/124/516
f 810/124/517 813/130/517 811/112/517 808/46/517
f 806/113/518 809/110/518 810/124/518 807/131/518
f 807/131/519 810/124/519 808/46/519 805/29/519
f 802/81/520 806/80/520 807/131/520 804/126/520
f 804/126/521 807/131/521 805/36/521 803/30/521
f 709/104/522 746/120/522 760/119/522 725/77/522
f 820/132/523 818/133/523 817/134/523 819/135/523
f 824/132/524 822/133/524 821/134/524 823/135/524
f 828/132/525 826/133/525 825/134/525 827/135/525
f 829/1/526 830/2/526 832/3/526 831/4/526
f 831/1/527 832/2/527 836/3/527 835/4/527
f 835/1/528 836/2/528 834/3/528 833/4/528
f 833/1/529 834/2/529 830/3/529 829/4/529
f 831/4/5 835/1/5 833/5/5 829/6/5
f 836/7/6 832/8/6 830/2/6 834/3/6
f 837/9/530 838/10/530 840/11/530 839/12/530
f 839/13/527 840/10/527 844/11/527 843/14/527
f 843/9/531 844/10/531 842/11/531 841/12/531
f 841/9/529 842/10/529 838/11/529 837/12/529
f 839/12/532 843/9/532 841/9/532 837/12/532
f 844/15/533 840/16/533 838/10/533 842/11/533
f 845/17/534 846/18/534 848/19/534 847/20/534
f 847/17/527 848/18/527 852/19/527 851/20/527
f 851/17/535 852/18/535 850/19/535 849/20/535
f 849/17/529 850/18/529 846/19/529 845/20/529
f 847/20/536 851/17/536 849/21/536 845/22/536
f 852/23/537 848/24/537 846/18/537 850/19/537
f 882/25/538 908/26/538 904/27/538 866/28/538
f 926/29/539 922/30/539 854/31/539 886/32/539
f 907/33/540 877/34/540 862/31/540 905/35/540
f 869/32/541 856/31/541 959/30/541 961/36/541
f 889/37/542 858/38/542 923/39/542 925/40/542
f 943/41/543 897/25/543 868/28/543 941/42/543
f 894/43/544 944/44/544 940/45/544 864/31/544
f 869/32/545 961/29/545 964/46/545 871/47/545
f 872/48/546 967/49/546 970/50/546 870/51/546
f 877/34/547 907/52/547 910/53/547 879/54/547
f 880/55/548 913/56/548 917/57/548 878/58/548
f 857/59/549 890/60/549 935/61/549 919/62/549
f 889/37/550 925/63/550 928/64/550 891/65/550
f 892/66/551 931/67/551 935/68/551 890/60/551
f 863/69/552 938/70/552 952/71/552 893/58/552
f 897/25/553 943/41/553 946/72/553 899/73/553
f 900/74/554 949/75/554 953/76/554 898/77/554
f 855/69/555 870/51/555 970/78/555 955/79/555
f 962/80/556 958/81/556 860/38/556 874/82/556
f 914/83/557 883/84/557 881/77/557 916/76/557
f 911/72/558 884/73/558 883/84/558 914/83/558
f 879/54/559 910/85/559 913/56/559 880/55/559
f 901/86/560 861/69/560 878/58/560 917/71/560
f 908/41/561 882/25/561 884/73/561 911/72/561
f 932/87/562 887/88/562 885/89/562 934/90/562
f 929/91/563 888/92/563 887/88/563 932/93/563
f 891/65/564 928/64/564 931/94/564 892/66/564
f 926/95/565 886/32/565 888/92/565 929/96/565
f 920/97/566 934/90/566 885/89/566 853/69/566
f 950/98/567 895/99/567 893/58/567 952/71/567
f 947/100/568 896/54/568 895/99/568 950/101/568
f 899/73/569 946/72/569 949/75/569 900/74/569
f 944/52/570 894/43/570 896/54/570 947/102/570
f 937/103/571 867/104/571 898/77/571 953/76/571
f 956/105/572 971/106/572 873/60/572 859/59/572
f 968/107/573 875/108/573 873/60/573 971/109/573
f 965/110/574 876/111/574 875/108/574 968/107/574
f 871/47/575 964/46/575 967/112/575 872/48/575
f 962/113/576 874/82/576 876/111/576 965/110/576
f 914/83/577 916/76/577 918/114/577 915/115/577
f 915/115/578 918/114/578 917/57/578 913/56/578
f 911/72/579 914/83/579 915/115/579 912/116/579
f 912/116/580 915/115/580 913/56/580 910/85/580
f 908/41/581 911/72/581 912/116/581 909/117/581
f 909/117/582 912/116/582 910/53/582 907/52/582
f 901/86/583 917/71/583 918/114/583 903/118/583
f 903/118/584 918/114/584 916/119/584 902/120/584
f 907/33/585 905/35/585 906/121/585 909/117/585
f 909/117/586 906/121/586 904/27/586 908/26/586
f 932/87/587 934/90/587 936/122/587 933/123/587
f 933/123/588 936/122/588 935/68/588 931/67/588
f 929/91/589 932/93/589 933/123/589 930/124/589
f 930/124/590 933/123/590 931/94/590 928/64/590
f 926/95/591 929/96/591 930/124/591 927/125/591
f 927/125/592 930/124/592 928/64/592 925/63/592
f 922/30/593 926/29/593 927/125/593 924/126/593
f 924/126/594 927/125/594 925/40/594 923/39/594
f 934/90/595 920/97/595 921/127/595 936/122/595
f 936/122/596 921/127/596 919/62/596 935/61/596
f 950/98/597 952/71/597 954/128/597 951/115/597
f 951/115/598 954/128/598 953/76/598 949/75/598
f 947/100/599 950/101/599 951/115/599 948/116/599
f 948/116/600 951/115/600 949/75/600 946/72/600
f 944/52/601 947/102/601 948/116/601 945/117/601
f 945/117/602 948/116/602 946/72/602 943/41/602
f 943/41/603 941/42/603 942/121/603 945/117/603
f 945/117/604 942/121/604 940/45/604 944/44/604
f 937/103/605 953/76/605 954/128/605 939/118/605
f 939/118/606 954/128/606 952/71/606 938/70/606
f 971/106/607 956/105/607 957/127/607 972/129/607
f 972/129/608 957/127/608 955/79/608 970/78/608
f 968/107/609 971/109/609 972/129/609 969/130/609
f 969/130/610 972/129/610 970/50/610 967/49/610
f 965/110/611 968/107/611 969/130/611 966/124/611
f 966/124/612 969/130/612 967/112/612 964/46/612
f 962/113/613 965/110/613 966/124/613 963/131/613
f 963/131/614 966/124/614 964/46/614 961/29/614
f 958/81/615 962/80/615 963/131/615 960/126/615
f 960/126/616 963/131/616 961/36/616 959/30/616
f 865/104/617 902/120/617 916/119/617 881/77/617
f 1002/25/618 1028/26/618 1024/27/618 986/28/618
f 1046/29/619 1042/30/619 974/31/619 1006/32/619
f 1027/33/620 997/34/620 982/31/620 1025/35/620
f 989/32/621 976/31/621 1079/30/621 1081/36/621
f 1009/37/622 978/38/622 1043/39/622 1045/40/622
f 1063/41/623 1017/25/623 988/28/623 1061/42/623
f 1014/43/624 1064/44/624 1060/45/624 984/31/624
f 989/32/625 1081/29/625 1084/46/625 991/47/625
f 992/48/626 1087/49/626 1090/50/626 990/51/626
f 997/34/627 1027/52/627 1030/53/627 999/54/627
f 1000/55/628 1033/56/628 1037/57/628 998/58/628
f 977/59/629 1010/60/629 1055/61/629 1039/62/629
f 1009/37/630 1045/63/630 1048/64/630 1011/65/630
f 1012/66/631 1051/67/631 1055/68/631 1010/60/631
f 983/69/632 1058/70/632 1072/71/632 1013/58/632
f 1017/25/633 1063/41/633 1066/72/633 1019/73/633
f 1020/74/634 1069/75/634 1073/76/634 1018/77/634
f 975/69/635 990/51/635 1090/78/635 1075/79/635
f 1082/80/636 1078/81/636 980/38/636 994/82/636
f 1034/83/637 1003/84/637 1001/77/637 1036/76/637
f 1031/72/638 1004/73/638 1003/84/638 1034/83/638
f 999/54/639 1030/85/639 1033/56/639 1000/55/639
f 1021/86/640 981/69/640 998/58/640 1037/71/640
f 1028/41/641 1002/25/641 1004/73/641 1031/72/641
f 1052/87/642 1007/88/642 1005/89/642 1054/90/642
f 1049/91/643 1008/92/643 1007/88/643 1052/93/643
f 1011/65/644 1048/64/644 1051/94/644 1012/66/644
f 1046/95/645 1006/32/645 1008/92/645 1049/96/645
f 1040/97/646 1054/90/646 1005/89/646 973/69/646
f 1070/98/647 1015/99/647 1013/58/647 1072/71/647
f 1067/100/648 1016/54/648 1015/99/648 1070/101/648
f 1019/73/649 1066/72/649 1069/75/649 1020/74/649
f 1064/52/650 1014/43/650 1016/54/650 1067/102/650
f 1057/103/651 987/104/651 1018/77/651 1073/76/651
f 1076/105/652 1091/106/652 993/60/652 979/59/652
f 1088/107/653 995/108/653 993/60/653 1091/109/653
f 1085/110/654 996/111/654 995/108/654 1088/107/654
f 991/47/655 1084/46/655 1087/112/655 992/48/655
f 1082/113/656 994/82/656 996/111/656 1085/110/656
f 1034/83/657 1036/76/657 1038/114/657 1035/115/657
f 1035/115/658 1038/114/658 1037/57/658 1033/56/658
f 1031/72/659 1034/83/659 1035/115/659 1032/116/659
f 1032/116/660 1035/115/660 1033/56/660 1030/85/660
f 1028/41/661 1031/72/661 1032/116/661 1029/117/661
f 1029/117/662 1032/116/662 1030/53/662 1027/52/662
f 1021/86/663 1037/71/663 1038/114/663 1023/118/663
f 1023/118/664 1038/114/664 1036/119/664 1022/120/664
f 1027/33/665 1025/35/665 1026/121/665 1029/117/665
f 1029/117/666 1026/121/666 1024/27/666 1028/26/666
f 1052/87/667 1054/90/667 1056/122/667 1053/123/667
f 1053/123/668 1056/122/668 1055/68/668 1051/67/668
f 1049/91/669 1052/93/669 1053/123/669 1050/124/669
f 1050/124/670 1053/123/670 1051/94/670 1048/64/670
f 1046/95/671 1049/96/671 1050/124/671 1047/125/671
f 1047/125/672 1050/124/672 1048/64/672 1045/63/672
f 1042/30/673 1046/29/673 1047/125/673 1044/126/673
f 1044/126/674 1047/125/674 1045/40/674 1043/39/674
f 1054/90/675 1040/97/675 1041/127/675 1056/122/675
f 1056/122/676 1041/127/676 1039/62/676 1055/61/676
f 1070/98/677 1072/71/677 1074/128/677 1071/115/677
f 1071/115/678 1074/128/678 1073/76/678 1069/75/678
f 1067/100/679 1070/101/679 1071/115/679 1068/116/679
f 1068/116/680 1071/115/680 1069/75/680 1066/72/680
f 1064/52/681 1067/102/681 1068/116/681 1065/117/681
f 1065/117/682 1068/116/682 1066/72/682 1063/41/682
f 1063/41/683 1061/42/683 1062/121/683 1065/117/683
f 1065/117/684 1062/121/684 1060/45/684 1064/44/684
f 1057/103/685 1073/76/685 1074/128/685 1059/118/685
f 1059/118/686 1074/128/686 1072/71/686 1058/70/686
f 1091/106/687 1076/105/687 1077/127/687 1092/129/687
f 1092/129/688 1077/127/688 1075/79/688 1090/78/688
f 1088/107/689 1091/109/689 1092/129/689 1089/130/689
f 1089/130/690 1092/129/690 1090/50/690 1087/49/690
f 1085/110/691 1088/107/691 1089/130/691 1086/124/691
f 1086/124/692 1089/130/692 1087/112/692 1084/46/692
f 1082/113/693 1085/110/693 1086/124/693 1083/131/693
f 1083/131/694 1086/124/694 1084/46/694 1081/29/694
f 1078/81/695 1082/80/695 1083/131/695 1080/126/695
f 1080/126/696 1083/131/696 1081/36/696 1079/30/696
f 985/104/697 1022/120/697 1036/119/697 1001/77/697
f 1096/132/698 1094/133/698 1093/134/698 1095/135/698
f 1100/144/2 1099/145/2 1097/146/2 1098/147/2
f 1104/132/699 1102/133/699 1101/134/699 1103/135/699
f 1107/147/354 1108/146/354 1106/145/354 1105/144/354
f 1111/148/354 1112/142/354 1110/141/354 1109/149/354
f 1115/139/354 1116/138/354 1114/137/354 1113/136/354
f 1120/132/700 1118/133/700 1117/134/700 1119/135/700
f 1124/132/701 1122/133/701 1121/134/701 1123/135/701
