{"asset":{"version":"2.0","generator":"Blockbench 4.12.6 glTF exporter"},"scenes":[{"nodes":[11],"name":"blockbench_export"}],"scene":0,"nodes":[{"translation":[-2.5,-76.875,-1.25],"name":"cube","mesh":0},{"translation":[-2.5,1.25,-1.25],"name":"cube","mesh":1},{"translation":[-2.5,1.25,1.875],"name":"cube","mesh":2},{"translation":[-4.375,1.25,-0.625],"name":"cube","mesh":3},{"translation":[5,1.25,-0.625],"name":"cube","mesh":4},{"translation":[-1.875,1.25,-0.625],"name":"cube","mesh":5},{"rotation":[0.6532814824381882,0.27059805007309845,-0.2705980500730985,0.6532814824381883],"translation":[-1.875,4.375,0],"name":"plane","mesh":6},{"rotation":[0.6590290844890921,-0.2562823946303549,0.2562823946303549,0.6590290844890923],"translation":[-1.875,4.375,0],"name":"plane","mesh":7},{"rotation":[0.6532814824381882,0.27059805007309845,-0.2705980500730985,0.6532814824381883],"translation":[1.875,4.375,0],"name":"plane","mesh":8},{"rotation":[0.6590290844890921,-0.2562823946303549,0.2562823946303549,0.6590290844890923],"translation":[1.875,4.375,0],"name":"plane","mesh":9},{"translation":[-1.875,1.25,-0.625],"name":"cube","mesh":10},{"children":[0,1,2,3,4,5,6,7,8,9,10]}],"bufferViews":[{"buffer":0,"byteOffset":0,"byteLength":288,"target":34962,"byteStride":12},{"buffer":0,"byteOffset":288,"byteLength":288,"target":34962,"byteStride":12},{"buffer":0,"byteOffset":576,"byteLength":192,"target":34962,"byteStride":8},{"buffer":0,"byteOffset":768,"byteLength":24,"target":34963},{"buffer":0,"byteOffset":792,"byteLength":12,"target":34963},{"buffer":0,"byteOffset":804,"byteLength":36,"target":34963},{"buffer":0,"byteOffset":840,"byteLength":288,"target":34962,"byteStride":12},{"buffer":0,"byteOffset":1128,"byteLength":288,"target":34962,"byteStride":12},{"buffer":0,"byteOffset":1416,"byteLength":192,"target":34962,"byteStride":8},{"buffer":0,"byteOffset":1608,"byteLength":36,"target":34963},{"buffer":0,"byteOffset":1644,"byteLength":12,"target":34963},{"buffer":0,"byteOffset":1656,"byteLength":24,"target":34963},{"buffer":0,"byteOffset":1680,"byteLength":288,"target":34962,"byteStride":12},{"buffer":0,"byteOffset":1968,"byteLength":288,"target":34962,"byteStride":12},{"buffer":0,"byteOffset":2256,"byteLength":192,"target":34962,"byteStride":8},{"buffer":0,"byteOffset":2448,"byteLength":36,"target":34963},{"buffer":0,"byteOffset":2484,"byteLength":12,"target":34963},{"buffer":0,"byteOffset":2496,"byteLength":24,"target":34963},{"buffer":0,"byteOffset":2520,"byteLength":288,"target":34962,"byteStride":12},{"buffer":0,"byteOffset":2808,"byteLength":288,"target":34962,"byteStride":12},{"buffer":0,"byteOffset":3096,"byteLength":192,"target":34962,"byteStride":8},{"buffer":0,"byteOffset":3288,"byteLength":36,"target":34963},{"buffer":0,"byteOffset":3324,"byteLength":12,"target":34963},{"buffer":0,"byteOffset":3336,"byteLength":12,"target":34963},{"buffer":0,"byteOffset":3348,"byteLength":12,"target":34963},{"buffer":0,"byteOffset":3360,"byteLength":288,"target":34962,"byteStride":12},{"buffer":0,"byteOffset":3648,"byteLength":288,"target":34962,"byteStride":12},{"buffer":0,"byteOffset":3936,"byteLength":192,"target":34962,"byteStride":8},{"buffer":0,"byteOffset":4128,"byteLength":36,"target":34963},{"buffer":0,"byteOffset":4164,"byteLength":12,"target":34963},{"buffer":0,"byteOffset":4176,"byteLength":12,"target":34963},{"buffer":0,"byteOffset":4188,"byteLength":12,"target":34963},{"buffer":0,"byteOffset":4200,"byteLength":288,"target":34962,"byteStride":12},{"buffer":0,"byteOffset":4488,"byteLength":288,"target":34962,"byteStride":12},{"buffer":0,"byteOffset":4776,"byteLength":192,"target":34962,"byteStride":8},{"buffer":0,"byteOffset":4968,"byteLength":12,"target":34963},{"buffer":0,"byteOffset":4980,"byteLength":12,"target":34963},{"buffer":0,"byteOffset":4992,"byteLength":12,"target":34963},{"buffer":0,"byteOffset":5004,"byteLength":12,"target":34963},{"buffer":0,"byteOffset":5016,"byteLength":12,"target":34963},{"buffer":0,"byteOffset":5028,"byteLength":12,"target":34963},{"buffer":0,"byteOffset":5040,"byteLength":48,"target":34962,"byteStride":12},{"buffer":0,"byteOffset":5088,"byteLength":48,"target":34962,"byteStride":12},{"buffer":0,"byteOffset":5136,"byteLength":32,"target":34962,"byteStride":8},{"buffer":0,"byteOffset":5168,"byteLength":12,"target":34963},{"buffer":0,"byteOffset":5180,"byteLength":48,"target":34962,"byteStride":12},{"buffer":0,"byteOffset":5228,"byteLength":48,"target":34962,"byteStride":12},{"buffer":0,"byteOffset":5276,"byteLength":32,"target":34962,"byteStride":8},{"buffer":0,"byteOffset":5308,"byteLength":12,"target":34963},{"buffer":0,"byteOffset":5320,"byteLength":48,"target":34962,"byteStride":12},{"buffer":0,"byteOffset":5368,"byteLength":48,"target":34962,"byteStride":12},{"buffer":0,"byteOffset":5416,"byteLength":32,"target":34962,"byteStride":8},{"buffer":0,"byteOffset":5448,"byteLength":12,"target":34963},{"buffer":0,"byteOffset":5460,"byteLength":48,"target":34962,"byteStride":12},{"buffer":0,"byteOffset":5508,"byteLength":48,"target":34962,"byteStride":12},{"buffer":0,"byteOffset":5556,"byteLength":32,"target":34962,"byteStride":8},{"buffer":0,"byteOffset":5588,"byteLength":12,"target":34963},{"buffer":0,"byteOffset":5600,"byteLength":288,"target":34962,"byteStride":12},{"buffer":0,"byteOffset":5888,"byteLength":288,"target":34962,"byteStride":12},{"buffer":0,"byteOffset":6176,"byteLength":192,"target":34962,"byteStride":8},{"buffer":0,"byteOffset":6368,"byteLength":12,"target":34963},{"buffer":0,"byteOffset":6380,"byteLength":12,"target":34963},{"buffer":0,"byteOffset":6392,"byteLength":12,"target":34963},{"buffer":0,"byteOffset":6404,"byteLength":12,"target":34963},{"buffer":0,"byteOffset":6416,"byteLength":12,"target":34963},{"buffer":0,"byteOffset":6428,"byteLength":12,"target":34963}],"buffers":[{"byteLength":6440,"uri":"data:application/octet-stream;base64,"}],"accessors":[{"bufferView":0,"componentType":5126,"count":24,"max":[7.5,77.5,3.75],"min":[-2.5,76.875,-1.25],"type":"VEC3"},{"bufferView":1,"componentType":5126,"count":24,"max":[1,1,1],"min":[-1,-1,-1],"type":"VEC3"},{"bufferView":2,"componentType":5126,"count":24,"max":[1,0.5],"min":[0,0],"type":"VEC2"},{"bufferView":3,"componentType":5123,"count":12,"max":[7],"min":[0],"type":"SCALAR"},{"bufferView":4,"componentType":5123,"count":6,"max":[11],"min":[8],"type":"SCALAR"},{"bufferView":5,"componentType":5123,"count":18,"max":[23],"min":[12],"type":"SCALAR"},{"bufferView":6,"componentType":5126,"count":24,"max":[7.5,2.5,-0.625],"min":[-2.5,-0.625,-1.25],"type":"VEC3"},{"bufferView":7,"componentType":5126,"count":24,"max":[1,1,1],"min":[-1,-1,-1],"type":"VEC3"},{"bufferView":8,"componentType":5126,"count":24,"max":[1,0.3125],"min":[0,0],"type":"VEC2"},{"bufferView":9,"componentType":5123,"count":18,"max":[11],"min":[0],"type":"SCALAR"},{"bufferView":10,"componentType":5123,"count":6,"max":[15],"min":[12],"type":"SCALAR"},{"bufferView":11,"componentType":5123,"count":12,"max":[23],"min":[16],"type":"SCALAR"},{"bufferView":12,"componentType":5126,"count":24,"max":[7.5,2.5,0.625],"min":[-2.5,-0.625,0],"type":"VEC3"},{"bufferView":13,"componentType":5126,"count":24,"max":[1,1,1],"min":[-1,-1,-1],"type":"VEC3"},{"bufferView":14,"componentType":5126,"count":24,"max":[1,0.3125],"min":[0,0],"type":"VEC2"},{"bufferView":15,"componentType":5123,"count":18,"max":[11],"min":[0],"type":"SCALAR"},{"bufferView":16,"componentType":5123,"count":6,"max":[15],"min":[12],"type":"SCALAR"},{"bufferView":17,"componentType":5123,"count":12,"max":[23],"min":[16],"type":"SCALAR"},{"bufferView":18,"componentType":5126,"count":24,"max":[0,2.5,2.5],"min":[-0.625,-0.625,-1.25],"type":"VEC3"},{"bufferView":19,"componentType":5126,"count":24,"max":[1,1,1],"min":[-1,-1,-1],"type":"VEC3"},{"bufferView":20,"componentType":5126,"count":24,"max":[0.09375,0.375],"min":[0,0],"type":"VEC2"},{"bufferView":21,"componentType":5123,"count":18,"max":[11],"min":[0],"type":"SCALAR"},{"bufferView":22,"componentType":5123,"count":6,"max":[15],"min":[12],"type":"SCALAR"},{"bufferView":23,"componentType":5123,"count":6,"max":[19],"min":[16],"type":"SCALAR"},{"bufferView":24,"componentType":5123,"count":6,"max":[23],"min":[20],"type":"SCALAR"},{"bufferView":25,"componentType":5126,"count":24,"max":[0,2.5,2.5],"min":[-0.625,-0.625,-1.25],"type":"VEC3"},{"bufferView":26,"componentType":5126,"count":24,"max":[1,1,1],"min":[-1,-1,-1],"type":"VEC3"},{"bufferView":27,"componentType":5126,"count":24,"max":[0.1875,0.25],"min":[0,0],"type":"VEC2"},{"bufferView":28,"componentType":5123,"count":18,"max":[11],"min":[0],"type":"SCALAR"},{"bufferView":29,"componentType":5123,"count":6,"max":[15],"min":[12],"type":"SCALAR"},{"bufferView":30,"componentType":5123,"count":6,"max":[19],"min":[16],"type":"SCALAR"},{"bufferView":31,"componentType":5123,"count":6,"max":[23],"min":[20],"type":"SCALAR"},{"bufferView":32,"componentType":5126,"count":24,"max":[6.25,1.875,2.5],"min":[1.875,-0.625,-1.25],"type":"VEC3"},{"bufferView":33,"componentType":5126,"count":24,"max":[1,1,1],"min":[-1,-1,-1],"type":"VEC3"},{"bufferView":34,"componentType":5126,"count":24,"max":[0.875,1],"min":[0,0],"type":"VEC2"},{"bufferView":35,"componentType":5123,"count":6,"max":[3],"min":[0],"type":"SCALAR"},{"bufferView":36,"componentType":5123,"count":6,"max":[7],"min":[4],"type":"SCALAR"},{"bufferView":37,"componentType":5123,"count":6,"max":[11],"min":[8],"type":"SCALAR"},{"bufferView":38,"componentType":5123,"count":6,"max":[15],"min":[12],"type":"SCALAR"},{"bufferView":39,"componentType":5123,"count":6,"max":[19],"min":[16],"type":"SCALAR"},{"bufferView":40,"componentType":5123,"count":6,"max":[23],"min":[20],"type":"SCALAR"},{"bufferView":41,"componentType":5126,"count":4,"max":[1.25,0,4.375],"min":[-1.25,0,-4.375],"type":"VEC3"},{"bufferView":42,"componentType":5126,"count":4,"max":[0,1,0],"min":[0,1,0],"type":"VEC3"},{"bufferView":43,"componentType":5126,"count":4,"max":[0.75,1],"min":[0.5,0],"type":"VEC2"},{"bufferView":44,"componentType":5123,"count":6,"max":[3],"min":[0],"type":"SCALAR"},{"bufferView":45,"componentType":5126,"count":4,"max":[1.25,0,4.375],"min":[-1.25,0,-4.375],"type":"VEC3"},{"bufferView":46,"componentType":5126,"count":4,"max":[0,1,0],"min":[0,1,0],"type":"VEC3"},{"bufferView":47,"componentType":5126,"count":4,"max":[0.75,1],"min":[0.5,0],"type":"VEC2"},{"bufferView":48,"componentType":5123,"count":6,"max":[3],"min":[0],"type":"SCALAR"},{"bufferView":49,"componentType":5126,"count":4,"max":[1.25,0,4.375],"min":[-1.25,0,-4.375],"type":"VEC3"},{"bufferView":50,"componentType":5126,"count":4,"max":[0,1,0],"min":[0,1,0],"type":"VEC3"},{"bufferView":51,"componentType":5126,"count":4,"max":[0.75,1],"min":[0.5,0],"type":"VEC2"},{"bufferView":52,"componentType":5123,"count":6,"max":[3],"min":[0],"type":"SCALAR"},{"bufferView":53,"componentType":5126,"count":4,"max":[1.25,0,4.375],"min":[-1.25,0,-4.375],"type":"VEC3"},{"bufferView":54,"componentType":5126,"count":4,"max":[0,1,0],"min":[0,1,0],"type":"VEC3"},{"bufferView":55,"componentType":5126,"count":4,"max":[0.75,1],"min":[0.5,0],"type":"VEC2"},{"bufferView":56,"componentType":5123,"count":6,"max":[3],"min":[0],"type":"SCALAR"},{"bufferView":57,"componentType":5126,"count":24,"max":[1.875,1.875,2.5],"min":[-2.5,-0.625,-1.25],"type":"VEC3"},{"bufferView":58,"componentType":5126,"count":24,"max":[1,1,1],"min":[-1,-1,-1],"type":"VEC3"},{"bufferView":59,"componentType":5126,"count":24,"max":[0.875,1],"min":[0,0],"type":"VEC2"},{"bufferView":60,"componentType":5123,"count":6,"max":[3],"min":[0],"type":"SCALAR"},{"bufferView":61,"componentType":5123,"count":6,"max":[7],"min":[4],"type":"SCALAR"},{"bufferView":62,"componentType":5123,"count":6,"max":[11],"min":[8],"type":"SCALAR"},{"bufferView":63,"componentType":5123,"count":6,"max":[15],"min":[12],"type":"SCALAR"},{"bufferView":64,"componentType":5123,"count":6,"max":[19],"min":[16],"type":"SCALAR"},{"bufferView":65,"componentType":5123,"count":6,"max":[23],"min":[20],"type":"SCALAR"}],"materials":[{"pbrMetallicRoughness":{"metallicFactor":0,"roughnessFactor":1,"baseColorTexture":{"index":0}},"alphaMode":"MASK","alphaCutoff":0.05,"doubleSided":true},{"pbrMetallicRoughness":{"metallicFactor":0,"roughnessFactor":1},"alphaMode":"MASK","alphaCutoff":0.05,"doubleSided":true}],"textures":[{"sampler":0,"source":0,"name":"ws_flower_pot.png"}],"samplers":[{"magFilter":9728,"minFilter":9728,"wrapS":33071,"wrapT":33071}],"images":[{"mimeType":"image/png","name":"ws_flower_pot.png","uri":"ws_flower_pot.png"}],"meshes":[{"primitives":[{"mode":4,"attributes":{"POSITION":0,"NORMAL":1,"TEXCOORD_0":2},"indices":3,"material":0},{"mode":4,"attributes":{"POSITION":0,"NORMAL":1,"TEXCOORD_0":2},"indices":4,"material":1},{"mode":4,"attributes":{"POSITION":0,"NORMAL":1,"TEXCOORD_0":2},"indices":5,"material":0}]},{"primitives":[{"mode":4,"attributes":{"POSITION":6,"NORMAL":7,"TEXCOORD_0":8},"indices":9,"material":0},{"mode":4,"attributes":{"POSITION":6,"NORMAL":7,"TEXCOORD_0":8},"indices":10,"material":1},{"mode":4,"attributes":{"POSITION":6,"NORMAL":7,"TEXCOORD_0":8},"indices":11,"material":0}]},{"primitives":[{"mode":4,"attributes":{"POSITION":12,"NORMAL":13,"TEXCOORD_0":14},"indices":15,"material":0},{"mode":4,"attributes":{"POSITION":12,"NORMAL":13,"TEXCOORD_0":14},"indices":16,"material":1},{"mode":4,"attributes":{"POSITION":12,"NORMAL":13,"TEXCOORD_0":14},"indices":17,"material":0}]},{"primitives":[{"mode":4,"attributes":{"POSITION":18,"NORMAL":19,"TEXCOORD_0":20},"indices":21,"material":0},{"mode":4,"attributes":{"POSITION":18,"NORMAL":19,"TEXCOORD_0":20},"indices":22,"material":1},{"mode":4,"attributes":{"POSITION":18,"NORMAL":19,"TEXCOORD_0":20},"indices":23,"material":1},{"mode":4,"attributes":{"POSITION":18,"NORMAL":19,"TEXCOORD_0":20},"indices":24,"material":1}]},{"primitives":[{"mode":4,"attributes":{"POSITION":25,"NORMAL":26,"TEXCOORD_0":27},"indices":28,"material":0},{"mode":4,"attributes":{"POSITION":25,"NORMAL":26,"TEXCOORD_0":27},"indices":29,"material":1},{"mode":4,"attributes":{"POSITION":25,"NORMAL":26,"TEXCOORD_0":27},"indices":30,"material":1},{"mode":4,"attributes":{"POSITION":25,"NORMAL":26,"TEXCOORD_0":27},"indices":31,"material":1}]},{"primitives":[{"mode":4,"attributes":{"POSITION":32,"NORMAL":33,"TEXCOORD_0":34},"indices":35,"material":1},{"mode":4,"attributes":{"POSITION":32,"NORMAL":33,"TEXCOORD_0":34},"indices":36,"material":1},{"mode":4,"attributes":{"POSITION":32,"NORMAL":33,"TEXCOORD_0":34},"indices":37,"material":0},{"mode":4,"attributes":{"POSITION":32,"NORMAL":33,"TEXCOORD_0":34},"indices":38,"material":1},{"mode":4,"attributes":{"POSITION":32,"NORMAL":33,"TEXCOORD_0":34},"indices":39,"material":1},{"mode":4,"attributes":{"POSITION":32,"NORMAL":33,"TEXCOORD_0":34},"indices":40,"material":1}]},{"primitives":[{"mode":4,"attributes":{"POSITION":41,"NORMAL":42,"TEXCOORD_0":43},"indices":44,"material":0}]},{"primitives":[{"mode":4,"attributes":{"POSITION":45,"NORMAL":46,"TEXCOORD_0":47},"indices":48,"material":0}]},{"primitives":[{"mode":4,"attributes":{"POSITION":49,"NORMAL":50,"TEXCOORD_0":51},"indices":52,"material":0}]},{"primitives":[{"mode":4,"attributes":{"POSITION":53,"NORMAL":54,"TEXCOORD_0":55},"indices":56,"material":0}]},{"primitives":[{"mode":4,"attributes":{"POSITION":57,"NORMAL":58,"TEXCOORD_0":59},"indices":60,"material":1},{"mode":4,"attributes":{"POSITION":57,"NORMAL":58,"TEXCOORD_0":59},"indices":61,"material":1},{"mode":4,"attributes":{"POSITION":57,"NORMAL":58,"TEXCOORD_0":59},"indices":62,"material":0},{"mode":4,"attributes":{"POSITION":57,"NORMAL":58,"TEXCOORD_0":59},"indices":63,"material":1},{"mode":4,"attributes":{"POSITION":57,"NORMAL":58,"TEXCOORD_0":59},"indices":64,"material":1},{"mode":4,"attributes":{"POSITION":57,"NORMAL":58,"TEXCOORD_0":59},"indices":65,"material":1}]}]}