{"asset":{"version":"2.0","generator":"Blockbench 4.12.6 glTF exporter"},"scenes":[{"nodes":[13],"name":"blockbench_export"}],"scene":0,"nodes":[{"translation":[0,1.25,-1.25],"name":"cube","mesh":0},{"translation":[0,3.75,-1.25],"name":"cube","mesh":1},{"translation":[-1.25,3.125,-0.625],"name":"cube","mesh":2},{"translation":[-1.25,0.625,-0.625],"name":"cube","mesh":3},{"translation":[-13.75,6.25,0],"name":"cube","mesh":4},{"translation":[-12.5,0,4.375],"name":"cube","mesh":5},{"translation":[-12.5,5,4.375],"name":"cube","mesh":6},{"translation":[-13.125,5.625,1.25],"name":"cube","mesh":7},{"translation":[-13.125,0,0.625],"name":"cube","mesh":8},{"translation":[-13.125,3.125,1.25],"name":"cube","mesh":9},{"translation":[-13.125,0,1.25],"name":"cube","mesh":10},{"translation":[-13.125,0,4.375],"name":"cube","mesh":11},{"translation":[-1.875,0,0.625],"name":"cube","mesh":12},{"children":[0,1,2,3,4,5,6,7,8,9,10,11,12]}],"bufferViews":[{"buffer":0,"byteOffset":0,"byteLength":288,"target":34962,"byteStride":12},{"buffer":0,"byteOffset":288,"byteLength":288,"target":34962,"byteStride":12},{"buffer":0,"byteOffset":576,"byteLength":192,"target":34962,"byteStride":8},{"buffer":0,"byteOffset":768,"byteLength":48,"target":34963},{"buffer":0,"byteOffset":816,"byteLength":12,"target":34963},{"buffer":0,"byteOffset":828,"byteLength":12,"target":34963},{"buffer":0,"byteOffset":840,"byteLength":288,"target":34962,"byteStride":12},{"buffer":0,"byteOffset":1128,"byteLength":288,"target":34962,"byteStride":12},{"buffer":0,"byteOffset":1416,"byteLength":192,"target":34962,"byteStride":8},{"buffer":0,"byteOffset":1608,"byteLength":48,"target":34963},{"buffer":0,"byteOffset":1656,"byteLength":12,"target":34963},{"buffer":0,"byteOffset":1668,"byteLength":12,"target":34963},{"buffer":0,"byteOffset":1680,"byteLength":288,"target":34962,"byteStride":12},{"buffer":0,"byteOffset":1968,"byteLength":288,"target":34962,"byteStride":12},{"buffer":0,"byteOffset":2256,"byteLength":192,"target":34962,"byteStride":8},{"buffer":0,"byteOffset":2448,"byteLength":48,"target":34963},{"buffer":0,"byteOffset":2496,"byteLength":12,"target":34963},{"buffer":0,"byteOffset":2508,"byteLength":12,"target":34963},{"buffer":0,"byteOffset":2520,"byteLength":288,"target":34962,"byteStride":12},{"buffer":0,"byteOffset":2808,"byteLength":288,"target":34962,"byteStride":12},{"buffer":0,"byteOffset":3096,"byteLength":192,"target":34962,"byteStride":8},{"buffer":0,"byteOffset":3288,"byteLength":48,"target":34963},{"buffer":0,"byteOffset":3336,"byteLength":12,"target":34963},{"buffer":0,"byteOffset":3348,"byteLength":12,"target":34963},{"buffer":0,"byteOffset":3360,"byteLength":288,"target":34962,"byteStride":12},{"buffer":0,"byteOffset":3648,"byteLength":288,"target":34962,"byteStride":12},{"buffer":0,"byteOffset":3936,"byteLength":192,"target":34962,"byteStride":8},{"buffer":0,"byteOffset":4128,"byteLength":72,"target":34963},{"buffer":0,"byteOffset":4200,"byteLength":288,"target":34962,"byteStride":12},{"buffer":0,"byteOffset":4488,"byteLength":288,"target":34962,"byteStride":12},{"buffer":0,"byteOffset":4776,"byteLength":192,"target":34962,"byteStride":8},{"buffer":0,"byteOffset":4968,"byteLength":12,"target":34963},{"buffer":0,"byteOffset":4980,"byteLength":12,"target":34963},{"buffer":0,"byteOffset":4992,"byteLength":48,"target":34963},{"buffer":0,"byteOffset":5040,"byteLength":288,"target":34962,"byteStride":12},{"buffer":0,"byteOffset":5328,"byteLength":288,"target":34962,"byteStride":12},{"buffer":0,"byteOffset":5616,"byteLength":192,"target":34962,"byteStride":8},{"buffer":0,"byteOffset":5808,"byteLength":12,"target":34963},{"buffer":0,"byteOffset":5820,"byteLength":12,"target":34963},{"buffer":0,"byteOffset":5832,"byteLength":12,"target":34963},{"buffer":0,"byteOffset":5844,"byteLength":36,"target":34963},{"buffer":0,"byteOffset":5880,"byteLength":288,"target":34962,"byteStride":12},{"buffer":0,"byteOffset":6168,"byteLength":288,"target":34962,"byteStride":12},{"buffer":0,"byteOffset":6456,"byteLength":192,"target":34962,"byteStride":8},{"buffer":0,"byteOffset":6648,"byteLength":24,"target":34963},{"buffer":0,"byteOffset":6672,"byteLength":12,"target":34963},{"buffer":0,"byteOffset":6684,"byteLength":12,"target":34963},{"buffer":0,"byteOffset":6696,"byteLength":12,"target":34963},{"buffer":0,"byteOffset":6708,"byteLength":12,"target":34963},{"buffer":0,"byteOffset":6720,"byteLength":288,"target":34962,"byteStride":12},{"buffer":0,"byteOffset":7008,"byteLength":288,"target":34962,"byteStride":12},{"buffer":0,"byteOffset":7296,"byteLength":192,"target":34962,"byteStride":8},{"buffer":0,"byteOffset":7488,"byteLength":24,"target":34963},{"buffer":0,"byteOffset":7512,"byteLength":12,"target":34963},{"buffer":0,"byteOffset":7524,"byteLength":36,"target":34963},{"buffer":0,"byteOffset":7560,"byteLength":288,"target":34962,"byteStride":12},{"buffer":0,"byteOffset":7848,"byteLength":288,"target":34962,"byteStride":12},{"buffer":0,"byteOffset":8136,"byteLength":192,"target":34962,"byteStride":8},{"buffer":0,"byteOffset":8328,"byteLength":48,"target":34963},{"buffer":0,"byteOffset":8376,"byteLength":12,"target":34963},{"buffer":0,"byteOffset":8388,"byteLength":12,"target":34963},{"buffer":0,"byteOffset":8400,"byteLength":288,"target":34962,"byteStride":12},{"buffer":0,"byteOffset":8688,"byteLength":288,"target":34962,"byteStride":12},{"buffer":0,"byteOffset":8976,"byteLength":192,"target":34962,"byteStride":8},{"buffer":0,"byteOffset":9168,"byteLength":48,"target":34963},{"buffer":0,"byteOffset":9216,"byteLength":12,"target":34963},{"buffer":0,"byteOffset":9228,"byteLength":12,"target":34963},{"buffer":0,"byteOffset":9240,"byteLength":288,"target":34962,"byteStride":12},{"buffer":0,"byteOffset":9528,"byteLength":288,"target":34962,"byteStride":12},{"buffer":0,"byteOffset":9816,"byteLength":192,"target":34962,"byteStride":8},{"buffer":0,"byteOffset":10008,"byteLength":24,"target":34963},{"buffer":0,"byteOffset":10032,"byteLength":12,"target":34963},{"buffer":0,"byteOffset":10044,"byteLength":36,"target":34963},{"buffer":0,"byteOffset":10080,"byteLength":288,"target":34962,"byteStride":12},{"buffer":0,"byteOffset":10368,"byteLength":288,"target":34962,"byteStride":12},{"buffer":0,"byteOffset":10656,"byteLength":192,"target":34962,"byteStride":8},{"buffer":0,"byteOffset":10848,"byteLength":24,"target":34963},{"buffer":0,"byteOffset":10872,"byteLength":12,"target":34963},{"buffer":0,"byteOffset":10884,"byteLength":36,"target":34963}],"buffers":[{"byteLength":10920,"uri":"data:application/octet-stream;base64,"}],"accessors":[{"bufferView":0,"componentType":5126,"count":24,"max":[1.875,0.625,0],"min":[-0.625,0,-0.625],"type":"VEC3"},{"bufferView":1,"componentType":5126,"count":24,"max":[1,1,1],"min":[-1,-1,-1],"type":"VEC3"},{"bufferView":2,"componentType":5126,"count":24,"max":[0.921875,0.1875],"min":[0,0],"type":"VEC2"},{"bufferView":3,"componentType":5123,"count":24,"max":[15],"min":[0],"type":"SCALAR"},{"bufferView":4,"componentType":5123,"count":6,"max":[19],"min":[16],"type":"SCALAR"},{"bufferView":5,"componentType":5123,"count":6,"max":[23],"min":[20],"type":"SCALAR"},{"bufferView":6,"componentType":5126,"count":24,"max":[1.875,0.625,0],"min":[-0.625,0,-0.625],"type":"VEC3"},{"bufferView":7,"componentType":5126,"count":24,"max":[1,1,1],"min":[-1,-1,-1],"type":"VEC3"},{"bufferView":8,"componentType":5126,"count":24,"max":[1,1],"min":[0,0],"type":"VEC2"},{"bufferView":9,"componentType":5123,"count":24,"max":[15],"min":[0],"type":"SCALAR"},{"bufferView":10,"componentType":5123,"count":6,"max":[19],"min":[16],"type":"SCALAR"},{"bufferView":11,"componentType":5123,"count":6,"max":[23],"min":[20],"type":"SCALAR"},{"bufferView":12,"componentType":5126,"count":24,"max":[4.375,1.875,0],"min":[-0.625,0,-0.625],"type":"VEC3"},{"bufferView":13,"componentType":5126,"count":24,"max":[1,1,1],"min":[-1,-1,-1],"type":"VEC3"},{"bufferView":14,"componentType":5126,"count":24,"max":[0.5,0.3125],"min":[0,0],"type":"VEC2"},{"bufferView":15,"componentType":5123,"count":24,"max":[15],"min":[0],"type":"SCALAR"},{"bufferView":16,"componentType":5123,"count":6,"max":[19],"min":[16],"type":"SCALAR"},{"bufferView":17,"componentType":5123,"count":6,"max":[23],"min":[20],"type":"SCALAR"},{"bufferView":18,"componentType":5126,"count":24,"max":[4.375,1.875,0],"min":[-0.625,0,-0.625],"type":"VEC3"},{"bufferView":19,"componentType":5126,"count":24,"max":[1,1,1],"min":[-1,-1,-1],"type":"VEC3"},{"bufferView":20,"componentType":5126,"count":24,"max":[0.5,0.3125],"min":[0,0],"type":"VEC2"},{"bufferView":21,"componentType":5123,"count":24,"max":[15],"min":[0],"type":"SCALAR"},{"bufferView":22,"componentType":5123,"count":6,"max":[19],"min":[16],"type":"SCALAR"},{"bufferView":23,"componentType":5123,"count":6,"max":[23],"min":[20],"type":"SCALAR"},{"bufferView":24,"componentType":5126,"count":24,"max":[18.125,0.625,5],"min":[-0.625,0,-1.875],"type":"VEC3"},{"bufferView":25,"componentType":5126,"count":24,"max":[1,1,1],"min":[-1,-1,-1],"type":"VEC3"},{"bufferView":26,"componentType":5126,"count":24,"max":[0.75,1],"min":[0.5,0],"type":"VEC2"},{"bufferView":27,"componentType":5123,"count":36,"max":[23],"min":[0],"type":"SCALAR"},{"bufferView":28,"componentType":5126,"count":24,"max":[10,0.625,0],"min":[-0.625,0,-0.625],"type":"VEC3"},{"bufferView":29,"componentType":5126,"count":24,"max":[1,1,1],"min":[-1,-1,-1],"type":"VEC3"},{"bufferView":30,"componentType":5126,"count":24,"max":[0.5,0.25],"min":[0,0],"type":"VEC2"},{"bufferView":31,"componentType":5123,"count":6,"max":[3],"min":[0],"type":"SCALAR"},{"bufferView":32,"componentType":5123,"count":6,"max":[7],"min":[4],"type":"SCALAR"},{"bufferView":33,"componentType":5123,"count":24,"max":[23],"min":[8],"type":"SCALAR"},{"bufferView":34,"componentType":5126,"count":24,"max":[10,1.25,0],"min":[-0.625,-0.625,-0.625],"type":"VEC3"},{"bufferView":35,"componentType":5126,"count":24,"max":[1,1,1],"min":[-1,-1,-1],"type":"VEC3"},{"bufferView":36,"componentType":5126,"count":24,"max":[1,1],"min":[0,0],"type":"VEC2"},{"bufferView":37,"componentType":5123,"count":6,"max":[3],"min":[0],"type":"SCALAR"},{"bufferView":38,"componentType":5123,"count":6,"max":[7],"min":[4],"type":"SCALAR"},{"bufferView":39,"componentType":5123,"count":6,"max":[11],"min":[8],"type":"SCALAR"},{"bufferView":40,"componentType":5123,"count":18,"max":[23],"min":[12],"type":"SCALAR"},{"bufferView":41,"componentType":5126,"count":24,"max":[0,0.625,2.5],"min":[-0.625,0,-0.625],"type":"VEC3"},{"bufferView":42,"componentType":5126,"count":24,"max":[1,1,1],"min":[-1,-1,-1],"type":"VEC3"},{"bufferView":43,"componentType":5126,"count":24,"max":[0.421875,0.5625],"min":[0,0],"type":"VEC2"},{"bufferView":44,"componentType":5123,"count":12,"max":[7],"min":[0],"type":"SCALAR"},{"bufferView":45,"componentType":5123,"count":6,"max":[11],"min":[8],"type":"SCALAR"},{"bufferView":46,"componentType":5123,"count":6,"max":[15],"min":[12],"type":"SCALAR"},{"bufferView":47,"componentType":5123,"count":6,"max":[19],"min":[16],"type":"SCALAR"},{"bufferView":48,"componentType":5123,"count":6,"max":[23],"min":[20],"type":"SCALAR"},{"bufferView":49,"componentType":5126,"count":24,"max":[0,6.25,0],"min":[-0.625,0,-0.625],"type":"VEC3"},{"bufferView":50,"componentType":5126,"count":24,"max":[1,1,1],"min":[-1,-1,-1],"type":"VEC3"},{"bufferView":51,"componentType":5126,"count":24,"max":[0.359375,0.8125],"min":[0,0],"type":"VEC2"},{"bufferView":52,"componentType":5123,"count":12,"max":[7],"min":[0],"type":"SCALAR"},{"bufferView":53,"componentType":5123,"count":6,"max":[11],"min":[8],"type":"SCALAR"},{"bufferView":54,"componentType":5123,"count":18,"max":[23],"min":[12],"type":"SCALAR"},{"bufferView":55,"componentType":5126,"count":24,"max":[0,0.625,2.5],"min":[-0.625,0,-0.625],"type":"VEC3"},{"bufferView":56,"componentType":5126,"count":24,"max":[1,1,1],"min":[-1,-1,-1],"type":"VEC3"},{"bufferView":57,"componentType":5126,"count":24,"max":[0.421875,0.3125],"min":[0,0],"type":"VEC2"},{"bufferView":58,"componentType":5123,"count":24,"max":[15],"min":[0],"type":"SCALAR"},{"bufferView":59,"componentType":5123,"count":6,"max":[19],"min":[16],"type":"SCALAR"},{"bufferView":60,"componentType":5123,"count":6,"max":[23],"min":[20],"type":"SCALAR"},{"bufferView":61,"componentType":5126,"count":24,"max":[0,0.625,2.5],"min":[-0.625,0,-0.625],"type":"VEC3"},{"bufferView":62,"componentType":5126,"count":24,"max":[1,1,1],"min":[-1,-1,-1],"type":"VEC3"},{"bufferView":63,"componentType":5126,"count":24,"max":[0.421875,1],"min":[0,0],"type":"VEC2"},{"bufferView":64,"componentType":5123,"count":24,"max":[15],"min":[0],"type":"SCALAR"},{"bufferView":65,"componentType":5123,"count":6,"max":[19],"min":[16],"type":"SCALAR"},{"bufferView":66,"componentType":5123,"count":6,"max":[23],"min":[20],"type":"SCALAR"},{"bufferView":67,"componentType":5126,"count":24,"max":[0,6.25,0],"min":[-0.625,0,-0.625],"type":"VEC3"},{"bufferView":68,"componentType":5126,"count":24,"max":[1,1,1],"min":[-1,-1,-1],"type":"VEC3"},{"bufferView":69,"componentType":5126,"count":24,"max":[0.453125,0.6875],"min":[0,0],"type":"VEC2"},{"bufferView":70,"componentType":5123,"count":12,"max":[7],"min":[0],"type":"SCALAR"},{"bufferView":71,"componentType":5123,"count":6,"max":[11],"min":[8],"type":"SCALAR"},{"bufferView":72,"componentType":5123,"count":18,"max":[23],"min":[12],"type":"SCALAR"},{"bufferView":73,"componentType":5126,"count":24,"max":[5.625,6.25,4.375],"min":[-0.625,0,-1.25],"type":"VEC3"},{"bufferView":74,"componentType":5126,"count":24,"max":[1,1,1],"min":[-1,-1,-1],"type":"VEC3"},{"bufferView":75,"componentType":5126,"count":24,"max":[0.75,1],"min":[0,0],"type":"VEC2"},{"bufferView":76,"componentType":5123,"count":12,"max":[7],"min":[0],"type":"SCALAR"},{"bufferView":77,"componentType":5123,"count":6,"max":[11],"min":[8],"type":"SCALAR"},{"bufferView":78,"componentType":5123,"count":18,"max":[23],"min":[12],"type":"SCALAR"}],"materials":[{"pbrMetallicRoughness":{"metallicFactor":0,"roughnessFactor":1,"baseColorTexture":{"index":0}},"alphaMode":"MASK","alphaCutoff":0.05,"doubleSided":true},{"pbrMetallicRoughness":{"metallicFactor":0,"roughnessFactor":1},"alphaMode":"MASK","alphaCutoff":0.05,"doubleSided":true},{"pbrMetallicRoughness":{"metallicFactor":0,"roughnessFactor":1},"alphaMode":"MASK","alphaCutoff":0.05,"doubleSided":true}],"textures":[{"sampler":0,"source":0,"name":"ws_desk.png"}],"samplers":[{"magFilter":9728,"minFilter":9728,"wrapS":33071,"wrapT":33071}],"images":[{"mimeType":"image/png","name":"ws_desk.png","uri":"ws_desk.png"}],"meshes":[{"primitives":[{"mode":4,"attributes":{"POSITION":0,"NORMAL":1,"TEXCOORD_0":2},"indices":3,"material":0},{"mode":4,"attributes":{"POSITION":0,"NORMAL":1,"TEXCOORD_0":2},"indices":4,"material":1},{"mode":4,"attributes":{"POSITION":0,"NORMAL":1,"TEXCOORD_0":2},"indices":5,"material":0}]},{"primitives":[{"mode":4,"attributes":{"POSITION":6,"NORMAL":7,"TEXCOORD_0":8},"indices":9,"material":0},{"mode":4,"attributes":{"POSITION":6,"NORMAL":7,"TEXCOORD_0":8},"indices":10,"material":1},{"mode":4,"attributes":{"POSITION":6,"NORMAL":7,"TEXCOORD_0":8},"indices":11,"material":0}]},{"primitives":[{"mode":4,"attributes":{"POSITION":12,"NORMAL":13,"TEXCOORD_0":14},"indices":15,"material":0},{"mode":4,"attributes":{"POSITION":12,"NORMAL":13,"TEXCOORD_0":14},"indices":16,"material":1},{"mode":4,"attributes":{"POSITION":12,"NORMAL":13,"TEXCOORD_0":14},"indices":17,"material":0}]},{"primitives":[{"mode":4,"attributes":{"POSITION":18,"NORMAL":19,"TEXCOORD_0":20},"indices":21,"material":0},{"mode":4,"attributes":{"POSITION":18,"NORMAL":19,"TEXCOORD_0":20},"indices":22,"material":1},{"mode":4,"attributes":{"POSITION":18,"NORMAL":19,"TEXCOORD_0":20},"indices":23,"material":0}]},{"primitives":[{"mode":4,"attributes":{"POSITION":24,"NORMAL":25,"TEXCOORD_0":26},"indices":27,"material":0}]},{"primitives":[{"mode":4,"attributes":{"POSITION":28,"NORMAL":29,"TEXCOORD_0":30},"indices":31,"material":2},{"mode":4,"attributes":{"POSITION":28,"NORMAL":29,"TEXCOORD_0":30},"indices":32,"material":2},{"mode":4,"attributes":{"POSITION":28,"NORMAL":29,"TEXCOORD_0":30},"indices":33,"material":0}]},{"primitives":[{"mode":4,"attributes":{"POSITION":34,"NORMAL":35,"TEXCOORD_0":36},"indices":37,"material":2},{"mode":4,"attributes":{"POSITION":34,"NORMAL":35,"TEXCOORD_0":36},"indices":38,"material":2},{"mode":4,"attributes":{"POSITION":34,"NORMAL":35,"TEXCOORD_0":36},"indices":39,"material":2},{"mode":4,"attributes":{"POSITION":34,"NORMAL":35,"TEXCOORD_0":36},"indices":40,"material":0}]},{"primitives":[{"mode":4,"attributes":{"POSITION":41,"NORMAL":42,"TEXCOORD_0":43},"indices":44,"material":0},{"mode":4,"attributes":{"POSITION":41,"NORMAL":42,"TEXCOORD_0":43},"indices":45,"material":2},{"mode":4,"attributes":{"POSITION":41,"NORMAL":42,"TEXCOORD_0":43},"indices":46,"material":0},{"mode":4,"attributes":{"POSITION":41,"NORMAL":42,"TEXCOORD_0":43},"indices":47,"material":2},{"mode":4,"attributes":{"POSITION":41,"NORMAL":42,"TEXCOORD_0":43},"indices":48,"material":2}]},{"primitives":[{"mode":4,"attributes":{"POSITION":49,"NORMAL":50,"TEXCOORD_0":51},"indices":52,"material":0},{"mode":4,"attributes":{"POSITION":49,"NORMAL":50,"TEXCOORD_0":51},"indices":53,"material":2},{"mode":4,"attributes":{"POSITION":49,"NORMAL":50,"TEXCOORD_0":51},"indices":54,"material":0}]},{"primitives":[{"mode":4,"attributes":{"POSITION":55,"NORMAL":56,"TEXCOORD_0":57},"indices":58,"material":0},{"mode":4,"attributes":{"POSITION":55,"NORMAL":56,"TEXCOORD_0":57},"indices":59,"material":2},{"mode":4,"attributes":{"POSITION":55,"NORMAL":56,"TEXCOORD_0":57},"indices":60,"material":2}]},{"primitives":[{"mode":4,"attributes":{"POSITION":61,"NORMAL":62,"TEXCOORD_0":63},"indices":64,"material":0},{"mode":4,"attributes":{"POSITION":61,"NORMAL":62,"TEXCOORD_0":63},"indices":65,"material":2},{"mode":4,"attributes":{"POSITION":61,"NORMAL":62,"TEXCOORD_0":63},"indices":66,"material":2}]},{"primitives":[{"mode":4,"attributes":{"POSITION":67,"NORMAL":68,"TEXCOORD_0":69},"indices":70,"material":0},{"mode":4,"attributes":{"POSITION":67,"NORMAL":68,"TEXCOORD_0":69},"indices":71,"material":2},{"mode":4,"attributes":{"POSITION":67,"NORMAL":68,"TEXCOORD_0":69},"indices":72,"material":0}]},{"primitives":[{"mode":4,"attributes":{"POSITION":73,"NORMAL":74,"TEXCOORD_0":75},"indices":76,"material":0},{"mode":4,"attributes":{"POSITION":73,"NORMAL":74,"TEXCOORD_0":75},"indices":77,"material":2},{"mode":4,"attributes":{"POSITION":73,"NORMAL":74,"TEXCOORD_0":75},"indices":78,"material":0}]}]}