# Blender 3.2.2
# www.blender.org
mtllib WLS_desk.mtl
o cube.013
v 0.080680 -0.141742 -0.312019
v 0.080680 -0.141742 -0.374519
v 0.080680 -0.204242 -0.312019
v 0.080680 -0.204242 -0.374519
v -0.169320 -0.141742 -0.374519
v -0.169320 -0.141742 -0.312019
v -0.169320 -0.204242 -0.374519
v -0.169320 -0.204242 -0.312019
vn -0.0000 -0.0000 -1.0000
vn 1.0000 -0.0000 -0.0000
vn -0.0000 -0.0000 1.0000
vn -1.0000 -0.0000 -0.0000
vn -0.0000 1.0000 -0.0000
vn -0.0000 -1.0000 -0.0000
vt 0.906250 0.875000
vt 0.250000 1.000000
vt 0.875000 0.875000
vt 0.812500 1.000000
vt 0.921875 0.875000
vt 0.875000 0.937500
vt 0.906250 0.812500
vt 0.250000 0.937500
vt 0.875000 0.875000
vt 0.812500 0.937500
vt 0.921875 0.812500
vt 0.875000 0.812500
vt 0.875000 1.000000
vt 0.890625 1.000000
vt 0.812500 0.937500
vt 0.000000 1.000000
vt 0.906250 1.000000
vt 0.812500 0.875000
vt 0.875000 0.937500
vt 0.890625 0.937500
vt 0.812500 0.812500
vt 0.000000 0.937500
vt 0.906250 0.937500
vt 0.812500 0.875000
s 0
usemtl m_a71270f3-fba1-9b24-049a-23d1e41cb71e.001
f 4/10/1 7/19/1 5/13/1 2/4/1
f 3/7/2 4/11/2 2/5/2 1/1/2
f 7/20/4 8/23/4 6/17/4 5/14/4
f 6/18/5 1/3/5 2/6/5 5/15/5
f 7/21/6 4/12/6 3/9/6 8/24/6
usemtl none.001
f 8/22/3 3/8/3 1/2/3 6/16/3
o cube.014
v 0.080680 0.108258 -0.312019
v 0.080680 0.108258 -0.374519
v 0.080680 0.045758 -0.312019
v 0.080680 0.045758 -0.374519
v -0.169320 0.108258 -0.374519
v -0.169320 0.108258 -0.312019
v -0.169320 0.045758 -0.374519
v -0.169320 0.045758 -0.312019
vn -0.0000 -0.0000 -1.0000
vn 1.0000 -0.0000 -0.0000
vn -0.0000 -0.0000 1.0000
vn -1.0000 -0.0000 -0.0000
vn -0.0000 1.0000 -0.0000
vn -0.0000 -1.0000 -0.0000
vt 0.890625 0.812500
vt 0.250000 1.000000
vt 0.906250 0.937500
vt 0.750000 0.062500
vt 0.906250 0.812500
vt 0.906250 1.000000
vt 0.890625 0.750000
vt 0.250000 0.937500
vt 0.812500 1.000000
vt 0.750000 0.000000
vt 0.906250 0.750000
vt 0.812500 0.937500
vt 0.812500 0.062500
vt 0.984375 0.937500
vt 0.843750 1.000000
vt 0.000000 1.000000
vt 1.000000 0.937500
vt 0.843750 0.937500
vt 0.812500 0.000000
vt 0.984375 0.875000
vt 0.750000 0.937500
vt 0.000000 0.937500
vt 1.000000 0.875000
vt 0.750000 1.000000
s 0
usemtl m_a71270f3-fba1-9b24-049a-23d1e41cb71e.001
f 12/34/7 15/43/7 13/37/7 10/28/7
f 11/31/8 12/35/8 10/29/8 9/25/8
f 15/44/10 16/47/10 14/41/10 13/38/10
f 14/42/11 9/27/11 10/30/11 13/39/11
f 15/45/12 12/36/12 11/33/12 16/48/12
usemtl none.001
f 16/46/9 11/32/9 9/26/9 14/40/9
o cube.015
v 0.205680 0.170758 -0.249519
v 0.205680 0.170758 -0.312019
v 0.205680 -0.016742 -0.249519
v 0.205680 -0.016742 -0.312019
v -0.294320 0.170758 -0.312019
v -0.294320 0.170758 -0.249519
v -0.294320 -0.016742 -0.312019
v -0.294320 -0.016742 -0.249519
vn -0.0000 -0.0000 -1.0000
vn 1.0000 -0.0000 -0.0000
vn -0.0000 -0.0000 1.0000
vn -1.0000 -0.0000 -0.0000
vn -0.0000 1.0000 -0.0000
vn -0.0000 -1.0000 -0.0000
vt 0.250000 0.937500
vt 0.500000 1.000000
vt 0.390625 0.937500
vt 0.265625 0.937500
vt 0.390625 1.000000
vt 0.250000 0.750000
vt 0.500000 0.812500
vt 0.390625 0.750000
vt 0.265625 0.750000
vt 0.390625 0.687500
vt 0.390625 0.937500
vt 0.265625 1.000000
vt 0.000000 1.000000
vt 0.406250 0.937500
vt 0.265625 0.937500
vt 0.390625 0.750000
vt 0.265625 0.687500
vt 0.000000 0.812500
vt 0.406250 0.750000
vt 0.265625 0.750000
s 0
usemtl m_a71270f3-fba1-9b24-049a-23d1e41cb71e.001
f 20/57/13 23/64/13 21/59/13 18/52/13
f 19/54/14 20/57/14 18/52/14 17/49/14
f 23/64/16 24/67/16 22/62/16 21/59/16
f 22/63/17 17/51/17 18/53/17 21/60/17
f 23/65/18 20/58/18 19/56/18 24/68/18
usemtl none.001
f 24/66/15 19/55/15 17/50/15 22/61/15
o cube.016
v 0.205680 -0.079242 -0.249519
v 0.205680 -0.079242 -0.312019
v 0.205680 -0.266742 -0.249519
v 0.205680 -0.266742 -0.312019
v -0.294320 -0.079242 -0.312019
v -0.294320 -0.079242 -0.249519
v -0.294320 -0.266742 -0.312019
v -0.294320 -0.266742 -0.249519
vn -0.0000 -0.0000 -1.0000
vn 1.0000 -0.0000 -0.0000
vn -0.0000 -0.0000 1.0000
vn -1.0000 -0.0000 -0.0000
vn -0.0000 1.0000 -0.0000
vn -0.0000 -1.0000 -0.0000
vt 0.250000 0.937500
vt 0.500000 1.000000
vt 0.390625 0.937500
vt 0.265625 0.937500
vt 0.390625 1.000000
vt 0.250000 0.750000
vt 0.500000 0.812500
vt 0.390625 0.750000
vt 0.265625 0.750000
vt 0.390625 0.687500
vt 0.390625 0.937500
vt 0.265625 1.000000
vt 0.000000 1.000000
vt 0.406250 0.937500
vt 0.265625 0.937500
vt 0.390625 0.750000
vt 0.265625 0.687500
vt 0.000000 0.812500
vt 0.406250 0.750000
vt 0.265625 0.750000
s 0
usemtl m_a71270f3-fba1-9b24-049a-23d1e41cb71e.001
f 28/77/19 31/84/19 29/79/19 26/72/19
f 27/74/20 28/77/20 26/72/20 25/69/20
f 31/84/22 32/87/22 30/82/22 29/79/22
f 30/83/23 25/71/23 26/73/23 29/80/23
f 31/85/24 28/78/24 27/76/24 32/88/24
usemtl none.001
f 32/86/21 27/75/21 25/70/21 30/81/21
o cube.017
v 0.330680 0.358257 0.312981
v 0.330680 0.358258 -0.374519
v 0.330680 0.295757 0.312981
v 0.330680 0.295758 -0.374519
v -1.544320 0.358258 -0.374519
v -1.544320 0.358257 0.312981
v -1.544320 0.295758 -0.374519
v -1.544320 0.295757 0.312981
vn -0.0000 -0.0000 -1.0000
vn 1.0000 -0.0000 -0.0000
vn -0.0000 -0.0000 1.0000
vn -1.0000 -0.0000 -0.0000
vn -0.0000 1.0000 -0.0000
vn -0.0000 -1.0000 -0.0000
vt 0.609375 0.125000
vt 0.750000 0.062500
vt 0.750000 0.437500
vt 0.500000 0.437500
vt 0.750000 0.125000
vt 0.750000 1.000000
vt 0.609375 0.062500
vt 0.750000 0.000000
vt 0.750000 1.000000
vt 0.500000 0.375000
vt 0.750000 0.062500
vt 0.750000 0.437500
vt 0.750000 0.437500
vt 0.640625 0.312500
vt 0.500000 1.000000
vt 0.500000 0.062500
vt 0.500000 0.312500
vt 0.500000 0.437500
vt 0.750000 0.375000
vt 0.640625 0.375000
vt 0.500000 0.437500
vt 0.500000 0.000000
vt 0.500000 0.375000
vt 0.500000 1.000000
s 0
usemtl m_a71270f3-fba1-9b24-049a-23d1e41cb71e.001
f 36/98/25 39/107/25 37/101/25 34/92/25
f 35/95/26 36/99/26 34/93/26 33/89/26
f 40/110/27 35/96/27 33/90/27 38/104/27
f 39/108/28 40/111/28 38/105/28 37/102/28
f 38/106/29 33/91/29 34/94/29 37/103/29
f 39/109/30 36/100/30 35/97/30 40/112/30
o cube.018
v -0.356820 -0.266743 0.250481
v -0.356820 -0.266743 0.187981
v -0.356820 -0.329243 0.250481
v -0.356820 -0.329243 0.187981
v -1.419320 -0.266743 0.187981
v -1.419320 -0.266743 0.250481
v -1.419320 -0.329243 0.187981
v -1.419320 -0.329243 0.250481
vn -0.0000 -0.0000 -1.0000
vn 1.0000 -0.0000 -0.0000
vn -0.0000 -0.0000 1.0000
vn -1.0000 -0.0000 -0.0000
vn -0.0000 1.0000 -0.0000
vn -0.0000 -1.0000 -0.0000
vt 0.000000 1.000000
vt 0.500000 0.875000
vt 0.250000 1.000000
vt 0.062500 1.000000
vt 0.500000 0.937500
vt 0.000000 0.937500
vt 0.500000 0.812500
vt 0.250000 0.937500
vt 0.062500 0.937500
vt 0.500000 0.750000
vt 0.500000 1.000000
vt 0.000000 1.000000
vt 0.250000 0.937500
vt 0.062500 1.000000
vt 0.250000 0.875000
vt 0.500000 0.937500
vt 0.000000 0.937500
vt 0.250000 0.750000
vt 0.062500 0.937500
vt 0.250000 0.812500
s 0
usemtl m_a71270f3-fba1-9b24-049a-23d1e41cb71e.001
f 44/120/31 47/128/31 45/123/31 42/115/31
f 48/132/33 43/119/33 41/114/33 46/127/33
f 46/127/35 41/114/35 42/117/35 45/125/35
f 47/130/36 44/122/36 43/119/36 48/132/36
usemtl none.001
f 43/118/32 44/121/32 42/116/32 41/113/32
f 47/129/34 48/131/34 46/126/34 45/124/34
o cube.019
v -0.356820 0.295757 0.250481
v -0.356820 0.295757 0.187981
v -0.356820 0.108257 0.250481
v -0.356820 0.108257 0.187981
v -1.419320 0.295757 0.187981
v -1.419320 0.295757 0.250481
v -1.419320 0.108257 0.187981
v -1.419320 0.108257 0.250481
vn -0.0000 -0.0000 -1.0000
vn 1.0000 -0.0000 -0.0000
vn -0.0000 -0.0000 1.0000
vn -1.0000 -0.0000 -0.0000
vn -0.0000 1.0000 -0.0000
vn -0.0000 -1.0000 -0.0000
vt 0.000000 1.000000
vt 0.250000 0.125000
vt 1.000000 0.937500
vt 0.000000 0.250000
vt 0.062500 1.000000
vt 1.000000 1.000000
vt 0.000000 0.875000
vt 0.250000 0.000000
vt 0.250000 0.312500
vt 0.000000 0.125000
vt 0.062500 0.875000
vt 0.250000 0.250000
vt 0.250000 0.250000
vt 0.000000 1.000000
vt 0.000000 0.125000
vt 0.062500 1.000000
vt 0.000000 0.937500
vt 0.250000 0.125000
vt 0.000000 0.875000
vt 0.000000 0.250000
vt 0.000000 0.000000
vt 0.062500 0.875000
vt 0.000000 0.312500
s 0
usemtl m_a71270f3-fba1-9b24-049a-23d1e41cb71e.001
f 52/142/37 55/150/37 53/145/37 50/136/37
f 56/153/39 51/140/39 49/134/39 54/147/39
f 55/152/42 52/144/42 51/141/42 56/155/42
usemtl none.001
f 51/139/38 52/143/38 50/137/38 49/133/38
f 55/151/40 56/154/40 54/148/40 53/146/40
f 54/149/41 49/135/41 50/138/41 53/146/41
o cube.020
v -1.419320 0.295757 0.187981
v -1.419320 0.295758 -0.124519
v -1.419320 0.233257 0.187981
v -1.419320 0.233258 -0.124519
v -1.481820 0.295758 -0.124519
v -1.481820 0.295757 0.187981
v -1.481820 0.233258 -0.124519
v -1.481820 0.233257 0.187981
vn -0.0000 -0.0000 -1.0000
vn 1.0000 -0.0000 -0.0000
vn -0.0000 -0.0000 1.0000
vn -1.0000 -0.0000 -0.0000
vn -0.0000 1.0000 -0.0000
vn -0.0000 -1.0000 -0.0000
vt 0.000000 1.000000
vt 0.062500 1.000000
vt 0.062500 0.687500
vt 0.000000 1.000000
vt 0.078125 1.000000
vt 0.062500 1.000000
vt 0.000000 0.937500
vt 0.062500 0.937500
vt 0.375000 0.750000
vt 0.000000 0.937500
vt 0.078125 0.937500
vt 0.375000 0.437500
vt 0.062500 1.000000
vt 0.343750 1.000000
vt 0.000000 1.000000
vt 0.000000 1.000000
vt 0.421875 1.000000
vt 0.000000 0.687500
vt 0.062500 0.937500
vt 0.343750 0.937500
vt 0.359375 0.437500
vt 0.000000 0.937500
vt 0.421875 0.937500
vt 0.359375 0.750000
s 0
usemtl none.001
f 60/165/43 63/174/43 61/168/43 58/159/43
f 64/177/45 59/163/45 57/157/45 62/171/45
f 62/173/47 57/158/47 58/161/47 61/170/47
usemtl m_a71270f3-fba1-9b24-049a-23d1e41cb71e.001
f 59/162/44 60/166/44 58/160/44 57/156/44
f 63/175/46 64/178/46 62/172/46 61/169/46
f 63/176/48 60/167/48 59/164/48 64/179/48
o cube.021
v -1.419320 0.295758 -0.124519
v -1.419320 0.295758 -0.187019
v -1.419320 -0.329242 -0.124519
v -1.419320 -0.329242 -0.187019
v -1.481820 0.295758 -0.187019
v -1.481820 0.295758 -0.124519
v -1.481820 -0.329242 -0.187019
v -1.481820 -0.329242 -0.124519
vn -0.0000 -0.0000 -1.0000
vn 1.0000 -0.0000 -0.0000
vn -0.0000 -0.0000 1.0000
vn -1.0000 -0.0000 -0.0000
vn -0.0000 1.0000 -0.0000
vn -0.0000 -1.0000 -0.0000
vt 0.000000 1.000000
vt 0.359375 1.000000
vt 0.062500 0.937500
vt 0.312500 1.000000
vt 0.015625 1.000000
vt 0.062500 1.000000
vt 0.000000 0.437500
vt 0.359375 0.437500
vt 0.281250 0.250000
vt 0.312500 0.437500
vt 0.015625 0.437500
vt 0.281250 0.187500
vt 0.328125 1.000000
vt 0.000000 1.000000
vt 0.343750 1.000000
vt 0.000000 0.937500
vt 0.328125 0.437500
vt 0.265625 0.187500
vt 0.343750 0.437500
vt 0.265625 0.250000
s 0
usemtl m_a71270f3-fba1-9b24-049a-23d1e41cb71e.001
f 68/189/49 71/196/49 69/192/49 66/183/49
f 67/186/50 68/190/50 66/184/50 65/180/50
f 72/198/51 67/187/51 65/181/51 70/194/51
f 71/196/52 72/198/52 70/194/52 69/192/52
f 71/197/54 68/191/54 67/188/54 72/199/54
usemtl none.001
f 70/195/53 65/182/53 66/185/53 69/193/53
o cube.022
v -1.419320 0.045757 0.187981
v -1.419320 0.045758 -0.124519
v -1.419320 -0.016743 0.187981
v -1.419320 -0.016742 -0.124519
v -1.481820 0.045758 -0.124519
v -1.481820 0.045757 0.187981
v -1.481820 -0.016742 -0.124519
v -1.481820 -0.016743 0.187981
vn -0.0000 -0.0000 -1.0000
vn 1.0000 -0.0000 -0.0000
vn -0.0000 -0.0000 1.0000
vn -1.0000 -0.0000 -0.0000
vn -0.0000 1.0000 -0.0000
vn -0.0000 -1.0000 -0.0000
vt 0.000000 1.000000
vt 0.062500 1.000000
vt 0.015625 0.687500
vt 0.000000 1.000000
vt 0.078125 1.000000
vt 0.015625 1.000000
vt 0.000000 0.937500
vt 0.062500 0.937500
vt 0.328125 1.000000
vt 0.000000 0.937500
vt 0.078125 0.937500
vt 0.328125 0.687500
vt 0.062500 1.000000
vt 0.343750 0.750000
vt 0.000000 1.000000
vt 0.000000 1.000000
vt 0.421875 0.750000
vt 0.000000 0.687500
vt 0.062500 0.937500
vt 0.343750 0.687500
vt 0.312500 0.687500
vt 0.000000 0.937500
vt 0.421875 0.687500
vt 0.312500 1.000000
s 0
usemtl none.001
f 76/209/55 79/218/55 77/212/55 74/203/55
f 80/221/57 75/207/57 73/201/57 78/215/57
usemtl m_a71270f3-fba1-9b24-049a-23d1e41cb71e.001
f 75/206/56 76/210/56 74/204/56 73/200/56
f 79/219/58 80/222/58 78/216/58 77/213/58
f 78/217/59 73/202/59 74/205/59 77/214/59
f 79/220/60 76/211/60 75/208/60 80/223/60
o cube.023
v -1.419320 -0.266743 0.187981
v -1.419320 -0.266742 -0.124519
v -1.419320 -0.329243 0.187981
v -1.419320 -0.329242 -0.124519
v -1.481820 -0.266742 -0.124519
v -1.481820 -0.266743 0.187981
v -1.481820 -0.329242 -0.124519
v -1.481820 -0.329243 0.187981
vn -0.0000 -0.0000 -1.0000
vn 1.0000 -0.0000 -0.0000
vn -0.0000 -0.0000 1.0000
vn -1.0000 -0.0000 -0.0000
vn -0.0000 1.0000 -0.0000
vn -0.0000 -1.0000 -0.0000
vt 0.000000 1.000000
vt 0.062500 1.000000
vt 0.015625 0.687500
vt 0.000000 1.000000
vt 0.078125 1.000000
vt 0.015625 1.000000
vt 0.000000 0.937500
vt 0.062500 0.937500
vt 0.265625 0.312500
vt 0.000000 0.937500
vt 0.078125 0.937500
vt 0.265625 0.000000
vt 0.062500 1.000000
vt 0.343750 0.562500
vt 0.000000 1.000000
vt 0.000000 1.000000
vt 0.421875 0.562500
vt 0.000000 0.687500
vt 0.062500 0.937500
vt 0.343750 0.500000
vt 0.250000 0.000000
vt 0.000000 0.937500
vt 0.421875 0.500000
vt 0.250000 0.312500
s 0
usemtl none.001
f 84/233/61 87/242/61 85/236/61 82/227/61
f 88/245/63 83/231/63 81/225/63 86/239/63
usemtl m_a71270f3-fba1-9b24-049a-23d1e41cb71e.001
f 83/230/62 84/234/62 82/228/62 81/224/62
f 87/243/64 88/246/64 86/240/64 85/237/64
f 86/241/65 81/226/65 82/229/65 85/238/65
f 87/244/66 84/235/66 83/232/66 88/247/66
o cube.024
v -1.419320 0.295757 0.250481
v -1.419320 0.295757 0.187981
v -1.419320 -0.329243 0.250481
v -1.419320 -0.329243 0.187981
v -1.481820 0.295757 0.187981
v -1.481820 0.295757 0.250481
v -1.481820 -0.329243 0.187981
v -1.481820 -0.329243 0.250481
vn -0.0000 -0.0000 -1.0000
vn 1.0000 -0.0000 -0.0000
vn -0.0000 -0.0000 1.0000
vn -1.0000 -0.0000 -0.0000
vn -0.0000 1.0000 -0.0000
vn -0.0000 -1.0000 -0.0000
vt 0.406250 1.000000
vt 0.453125 1.000000
vt 0.062500 0.937500
vt 0.406250 1.000000
vt 0.421875 1.000000
vt 0.062500 1.000000
vt 0.406250 0.437500
vt 0.453125 0.437500
vt 0.453125 0.375000
vt 0.406250 0.437500
vt 0.421875 0.437500
vt 0.453125 0.312500
vt 0.421875 1.000000
vt 0.000000 1.000000
vt 0.437500 1.000000
vt 0.000000 0.937500
vt 0.421875 0.437500
vt 0.437500 0.312500
vt 0.437500 0.437500
vt 0.437500 0.375000
s 0
usemtl m_a71270f3-fba1-9b24-049a-23d1e41cb71e.001
f 92/257/67 95/264/67 93/260/67 90/251/67
f 91/254/68 92/258/68 90/252/68 89/248/68
f 96/266/69 91/255/69 89/249/69 94/262/69
f 95/264/70 96/266/70 94/262/70 93/260/70
f 95/265/72 92/259/72 91/256/72 96/267/72
usemtl none.001
f 94/263/71 89/250/71 90/253/71 93/261/71
o cube.025
v 0.268180 0.295757 0.312981
v 0.268180 0.295758 -0.249519
v 0.268180 -0.329243 0.312981
v 0.268180 -0.329242 -0.249519
v -0.356820 0.295758 -0.249519
v -0.356820 0.295757 0.312981
v -0.356820 -0.329242 -0.249519
v -0.356820 -0.329243 0.312981
vn -0.0000 -0.0000 -1.0000
vn 1.0000 -0.0000 -0.0000
vn -0.0000 -0.0000 1.0000
vn -1.0000 -0.0000 -0.0000
vn -0.0000 1.0000 -0.0000
vn -0.0000 -1.0000 -0.0000
vt 0.500000 0.562500
vt 0.750000 1.000000
vt 0.625000 0.500000
vt 0.500000 1.000000
vt 0.625000 0.562500
vt 0.625000 1.000000
vt 0.500000 0.000000
vt 0.750000 0.437500
vt 0.656250 0.500000
vt 0.500000 0.437500
vt 0.625000 0.000000
vt 0.656250 0.000000
vt 0.656250 1.000000
vt 0.625000 0.562500
vt 0.000000 1.000000
vt 0.593750 1.000000
vt 0.750000 0.562500
vt 0.000000 0.500000
vt 0.656250 0.437500
vt 0.625000 0.000000
vt 0.500000 0.000000
vt 0.593750 0.437500
vt 0.750000 0.000000
vt 0.500000 0.500000
s 0
usemtl m_a71270f3-fba1-9b24-049a-23d1e41cb71e.001
f 100/277/73 103/286/73 101/280/73 98/271/73
f 99/274/74 100/278/74 98/272/74 97/268/74
f 104/289/75 99/275/75 97/269/75 102/283/75
f 103/287/76 104/290/76 102/284/76 101/281/76
f 103/288/78 100/279/78 99/276/78 104/291/78
usemtl none.001
f 102/285/77 97/270/77 98/273/77 101/282/77
